<svg width="244" height="52" viewBox="0 0 244 52" fill="none" xmlns="http://www.w3.org/2000/svg">
<mask id="mask0_721_335" style="mask-type:luminance" maskUnits="userSpaceOnUse" x="0" y="0" width="244" height="52">
<path d="M244 0H0V51.2099H244V0Z" fill="white"/>
</mask>
<g mask="url(#mask0_721_335)">
<path d="M147.775 15.5852C147.036 14.783 145.576 14.305 143.874 14.305C143.067 14.305 142.242 14.3903 141.52 14.6293C140.386 14.9537 137.774 15.9096 137.293 18.5383C136.967 20.0576 137.946 21.1671 139.819 21.7304C140.472 21.8841 141.194 21.9694 141.933 21.9694C144.373 21.9694 147.225 21.0135 148.187 18.5383C148.754 17.1045 148.256 16.1486 147.775 15.5852ZM116.227 22.1401C115.814 21.9011 115.007 21.5768 113.941 21.4232H113.856C113.684 21.4232 113.529 21.3378 113.288 21.3378H113.117C112.945 21.3378 112.79 21.2525 112.636 21.2525L109.061 20.9281H104.422C104.096 20.9281 103.683 20.9281 103.357 21.0135H103.185C102.858 21.0135 102.532 21.0988 102.205 21.0988H102.068C101.398 21.1671 100.71 21.2525 100.04 21.3378H99.9544C99.3014 21.4232 98.6485 21.4915 97.9955 21.6621C97.102 21.7816 96.2428 22.0036 95.4009 22.2937C94.662 22.5327 94.1809 23.0107 93.8544 23.7276L87.9949 38.9028H97.9268L100.934 30.9141C101.501 29.4802 102.721 27.005 105.092 25.8102C107.206 24.9225 108.666 24.5299 110.299 24.5299C111.106 24.5299 112.086 24.6153 113.151 24.8542C113.323 24.8542 113.959 25.0932 114.543 25.4175L115.11 25.7419L116.416 22.4644C116.381 22.4644 116.227 22.1401 116.227 22.1401ZM145.18 24.1373C144.94 23.7447 144.441 23.5057 143.96 23.5057H136.554C135.987 23.5057 135.42 23.8983 135.248 24.3763L129.63 38.7492H140.043L145.335 25.4175C145.507 25.0079 145.421 24.5299 145.18 24.1373ZM202.52 21.4232C199.101 21.4232 196.008 22.0718 193.241 23.2667L196.008 16.3193C196.18 15.9949 196.094 15.6023 195.922 15.278C195.716 14.9878 195.389 14.8171 195.028 14.8H186.97C186.488 14.8 186.076 15.039 185.921 15.517L176.643 38.8345H187.056L190.303 30.6922C191.351 27.978 194.29 26.0662 197.537 26.0662C199.238 26.0662 200.132 26.4588 200.132 27.2611C200.132 27.8244 200.046 28.3706 199.805 28.934L195.991 38.8345H206.49L210.39 28.934C210.717 27.978 211.043 26.7831 211.043 26.0662C210.974 23.1814 207.796 21.4232 202.52 21.4232ZM133.221 15.4316C133.015 15.1414 132.688 14.9707 132.327 14.9537H124.028C123.547 14.9537 123.134 15.1926 122.98 15.6706L113.787 38.8345H124.44L133.307 16.4729C133.461 16.0632 133.376 15.7559 133.221 15.4316ZM178.928 21.9011C178.722 21.6109 178.395 21.4402 178.034 21.4232H163.154C160.714 21.5085 158.927 21.6622 157.535 21.9011C153.222 22.857 150.541 24.4616 148.514 27.3294C146.486 30.6922 146.16 33.7989 147.466 36.1204C148.6 38.0322 150.885 39.1589 153.652 39.1589C155.851 39.1589 158.291 38.4419 160.731 37.1617C161.384 36.7691 162.277 36.1204 163.257 35.2498L165.13 33.577C162.449 39.9611 158.944 41.156 155.129 41.156C151.796 41.156 149.51 40.3538 148.136 39.8758L147.655 39.7222L145.868 44.1945L146.435 44.3481C148.462 44.9797 152.122 45.3894 155.868 45.3894C160.594 45.3894 164.408 44.7578 167.175 43.4776C170.508 41.9583 171.814 41.0878 172.708 38.6809L178.962 22.9424C179.168 22.5327 179.168 22.1401 178.928 21.9011ZM168.188 24.4446C143.462 24.2909 155.009 48.2401 168.188 24.4446V24.4446ZM90.0225 21.9011C89.8164 21.6109 89.4899 21.4402 89.129 21.4232H74.3344C71.8944 21.5085 70.1073 21.6622 68.7155 21.9011C64.4025 22.857 61.722 24.4616 59.6944 27.3294C57.6668 30.6922 57.3403 33.7989 58.629 36.1204C59.7631 38.0322 62.0485 39.1589 64.8149 39.1589C67.0144 39.1589 69.4544 38.4419 71.8944 37.1617C72.5473 36.7691 73.4409 36.1204 74.4203 35.2498L75.8121 33.9696L73.2862 38.9199H83.7851L90.1256 22.8741C90.2803 22.5327 90.2803 22.1401 90.0225 21.9011ZM78.9738 24.4446C54.3333 24.2909 65.8803 48.2401 78.9738 24.4446V24.4446ZM232.763 15.1073H229.017C228.123 15.1073 225.683 15.9096 221.611 17.5824C217.624 19.2553 215.184 20.5355 214.445 21.4232L212.005 24.4616H217.538L214.359 32.2114C214.119 32.9283 213.947 33.577 213.947 34.1232C213.947 35.4035 214.514 36.4447 215.579 37.1617C217.126 38.2029 219.566 38.7663 222.985 38.7663C226.559 38.7663 229.24 38.2029 230.958 37.008C231.525 36.6154 232.024 35.9668 232.505 35.1645V34.2939H226.886C225.013 34.2939 225.752 32.2114 226.147 30.7775L228.828 24.3933H234.687L235.993 21.3549H230.048C230.082 21.3378 232.763 15.1073 232.763 15.1073ZM15.6885 8.24516C28.9366 0.102791 46.3431 4.01181 54.6426 17.0362C55.6564 18.5896 56.4983 20.2453 57.1685 21.9865C56.4124 19.1699 55.244 16.4729 53.6803 13.9977C45.2262 0.6661 27.2355 -3.32827 13.6609 5.05308C0.000296781 13.3491 -4.0721 30.9994 4.4679 44.3311C6.04875 46.7891 7.99044 49.0082 10.2414 50.8859C8.95269 49.5374 7.76706 48.0523 6.73607 46.4989C-1.54618 33.5599 2.4403 16.3875 15.6885 8.24516Z" fill="black"/>
<path d="M10.98 24.9395C16.7535 22.7887 24.3141 21.3377 34.16 21.4231C27.2524 33.9524 20.4994 41.3779 14.64 45.3722C22.527 45.2186 34.4865 37.4688 46.927 15.0389C28.5411 14.8682 17.1487 19.3405 10.98 24.9395Z" fill="black"/>
</g>
</svg>
