<svg width="244" height="57" viewBox="0 0 244 57" fill="none" xmlns="http://www.w3.org/2000/svg">
<path fill-rule="evenodd" clip-rule="evenodd" d="M54.0562 0V19.3229H241.827V0H54.0562ZM0 31.2084V57H36.8411V52.1901H17.3461V46.5944H36.8411V41.6556H17.2561V36.0184H36.837V31.2084H0Z" fill="#151519"/>
<path fill-rule="evenodd" clip-rule="evenodd" d="M61.7592 31.2085C57.4943 31.2085 54.0562 34.7338 54.0562 39.0782V57.0001H87.4959C87.4959 57.0001 87.541 53.5495 87.541 53.1962C87.541 52.847 87.2954 52.6765 87.0252 52.6724C86.7633 52.664 65.1195 52.6724 65.1195 52.6724V46.291H84.1397V42.5328C84.1397 42.2086 83.9391 42.009 83.624 42.009H65.1195V35.4946H87.5V31.6492C87.5 31.3041 87.2954 31.2127 87.0252 31.2127H61.7592V31.2085ZM99.7586 31.2085C95.5018 31.2085 92.0555 34.7338 92.0555 39.0782V57.0001H125.798V42.5328C125.798 42.2585 125.54 42.009 125.283 42.009C125.049 42.009 113.401 42.0548 110.564 42.0548C110.237 42.0548 110.048 42.2792 110.048 42.537V46.2951H121.411V52.2857H103.078V35.4489H125.802V31.645C125.802 31.3166 125.602 31.2085 125.287 31.2085H99.7586ZM138.577 31.2085C134.32 31.2085 130.874 34.7338 130.874 39.0782V57.0001H164.612V42.5328C164.612 42.2585 164.395 42.009 164.137 42.009C163.904 42.009 152.259 42.0548 149.419 42.0548C149.096 42.0548 148.944 42.2751 148.944 42.537C148.944 42.7947 148.903 46.2951 148.903 46.2951H160.265V52.2857H141.933V35.4489H164.612V31.645C164.612 31.3166 164.452 31.2085 164.137 31.2085H138.577ZM177.485 31.2085C173.22 31.2085 169.782 34.7338 169.782 39.0782V57.0001H203.221V53.1962C203.221 52.847 203.017 52.6765 202.747 52.6724C202.485 52.664 180.841 52.6724 180.841 52.6724V46.291H199.82V42.5328C199.82 42.2086 199.66 42.009 199.345 42.009H180.841V35.4946H203.221V31.6492C203.221 31.3041 202.972 31.2127 202.706 31.2127H177.485V31.2085ZM215.398 31.2085C211.141 31.2085 207.74 34.7338 207.74 39.0782V57.0001H218.758V46.291C218.758 46.291 230.522 56.5344 230.121 56.2559C230.632 56.6716 230.865 57.0084 231.369 57.0001H243.464C244.655 57.0001 243.509 56.0813 243.509 56.0813L232.147 46.291H235.159C238.843 46.291 241.831 42.4829 241.831 38.729C241.831 34.975 238.88 31.2085 235.204 31.2085H215.398ZM218.758 35.4946H233.649C234.926 35.4946 236.534 36.5048 236.534 38.7747C236.534 40.8242 234.827 42.0548 233.649 42.0548H218.758V35.4946Z" fill="white"/>
</svg>
