<svg width="109" height="97" viewBox="0 0 109 97" fill="none" xmlns="http://www.w3.org/2000/svg">
<path d="M86.2098 96.2L59.5598 65.13H17.8298V96.2H0.799805V50.31H17.8298H64.8898H65.1498C70.7831 50.31 75.1598 50.05 78.2798 49.53C81.4865 48.9233 84.1298 47.4067 86.2098 44.98C88.3765 42.4667 89.4598 38.5233 89.4598 33.15C89.4598 27.43 88.3765 23.27 86.2098 20.67C84.1298 17.9833 81.4865 16.3367 78.2798 15.73C75.1598 15.1233 70.7831 14.82 65.1498 14.82C62.6365 14.82 60.4698 14.8633 58.6498 14.95C49.9831 15.2967 36.3765 15.47 17.8298 15.47H0.799805V0H66.5798C74.6398 0 81.7465 1.34333 87.8998 4.03C94.1398 6.71667 98.9498 10.4867 102.33 15.34C105.796 20.1067 107.53 25.6533 107.53 31.98V32.5C107.53 40.7333 105.103 47.5367 100.25 52.91C95.4831 58.2833 88.8531 61.88 80.3598 63.7L108.31 96.2H86.2098Z" fill="url(#paint0_linear_140_973)"/>
<circle cx="9.5" cy="32.96" r="9.5" fill="url(#paint1_linear_140_973)"/>
<defs>
<linearGradient id="paint0_linear_140_973" x1="54.5548" y1="0" x2="54.5548" y2="210.696" gradientUnits="userSpaceOnUse">
<stop stop-color="#151519"/>
<stop offset="1" stop-color="#A9ABB5"/>
</linearGradient>
<linearGradient id="paint1_linear_140_973" x1="9.5" y1="23.46" x2="9.5" y2="65.0736" gradientUnits="userSpaceOnUse">
<stop stop-color="#151519"/>
<stop offset="1" stop-color="#A9ABB5"/>
</linearGradient>
</defs>
</svg>
