<svg width="928" height="730" viewBox="0 0 928 730" fill="none" xmlns="http://www.w3.org/2000/svg">
<g clip-path="url(#clip0_1446_490)">
<g opacity="0.1">
<path d="M740.778 843.373L507.141 570.986H141.3V843.373H-8V441.061H141.3H553.869H556.148C605.535 441.061 643.905 438.782 671.257 434.223C699.37 428.905 722.543 415.608 740.778 394.334C759.773 372.3 769.271 337.729 769.271 290.622C769.271 240.475 759.773 204.005 740.778 181.211C722.543 157.658 699.37 143.221 671.257 137.903C643.905 132.584 605.535 129.925 556.148 129.925C534.114 129.925 515.119 130.305 499.164 131.065C423.184 134.104 303.896 135.624 141.3 135.624H-8V0H568.685C639.346 0 701.649 11.7768 755.595 35.3305C810.3 58.8842 852.468 91.9353 882.1 134.484C912.492 176.273 927.688 224.9 927.688 280.365V284.923C927.688 357.104 906.414 416.748 863.865 463.855C822.077 510.963 763.952 542.494 689.492 558.45L934.526 843.373H740.778Z" fill="url(#paint0_linear_1446_490)"/>
<circle cx="83.2853" cy="289.285" r="83.2853" fill="url(#paint1_linear_1446_490)"/>
</g>
</g>
<defs>
<linearGradient id="paint0_linear_1446_490" x1="463.263" y1="0" x2="463.263" y2="843.373" gradientUnits="userSpaceOnUse">
<stop stop-color="#151519"/>
<stop offset="1" stop-color="#6B6B7F"/>
</linearGradient>
<linearGradient id="paint1_linear_1446_490" x1="83.2853" y1="206" x2="83.2853" y2="372.571" gradientUnits="userSpaceOnUse">
<stop stop-color="#151519"/>
<stop offset="1" stop-color="#6B6B7F"/>
</linearGradient>
<clipPath id="clip0_1446_490">
<rect width="928" height="730" fill="white"/>
</clipPath>
</defs>
</svg>
