<svg width="72" height="64" viewBox="0 0 72 64" fill="none" xmlns="http://www.w3.org/2000/svg">
<path d="M56.8743 63.4648L39.2928 42.9674H11.7628V63.4648H0.527832V33.1904H11.7628H42.8091H42.9806C46.6971 33.1904 49.5844 33.0189 51.6427 32.6758C53.7582 32.2756 55.5021 31.275 56.8743 29.6741C58.3037 28.016 59.0184 25.4145 59.0184 21.8696C59.0184 18.0961 58.3037 15.3516 56.8743 13.6364C55.5021 11.8639 53.7582 10.7776 51.6427 10.3774C49.5844 9.97713 46.6971 9.77702 42.9806 9.77702C41.3226 9.77702 39.8932 9.8056 38.6925 9.86278C32.9749 10.0915 23.9984 10.2058 11.7628 10.2058H0.527832V0H43.924C49.2414 0 53.9298 0.886221 57.9892 2.65866C62.1059 4.43111 65.2791 6.91824 67.5089 10.1201C69.796 13.2647 70.9395 16.924 70.9395 21.0978V21.4408C70.9395 26.8725 69.3386 31.3608 66.1367 34.9057C62.9921 38.4505 58.6182 40.8233 53.015 42.024L71.4541 63.4648H56.8743Z" fill="url(#paint0_linear_140_432)"/>
<circle cx="6.26732" cy="21.7444" r="6.26732" fill="url(#paint1_linear_140_432)"/>
<defs>
<linearGradient id="paint0_linear_140_432" x1="35.9909" y1="0" x2="35.9909" y2="83" gradientUnits="userSpaceOnUse">
<stop stop-color="#A9ABB5"/>
<stop offset="1" stop-color="#4A4B4F"/>
</linearGradient>
<linearGradient id="paint1_linear_140_432" x1="6.26732" y1="15.4771" x2="6.26732" y2="31.87" gradientUnits="userSpaceOnUse">
<stop stop-color="#A9ABB5"/>
<stop offset="1" stop-color="#4A4B4F"/>
</linearGradient>
</defs>
</svg>
