<svg width="262" height="44" viewBox="0 0 262 44" fill="none" xmlns="http://www.w3.org/2000/svg">
<path fill-rule="evenodd" clip-rule="evenodd" d="M140.241 0.00883805C140.241 0.0544755 140.241 0.101496 140.241 0.147133C138.432 0.111176 136.626 0.158197 134.826 0.285428C134.931 0.178941 135.07 0.109794 135.242 0.0779856C136.908 0.00883805 138.575 -0.0132892 140.241 0.00883805Z" fill="#808DB9"/>
<path fill-rule="evenodd" clip-rule="evenodd" d="M140.241 0.147133C140.241 0.101496 140.241 0.0544755 140.241 0.00883805C140.845 -0.0146721 141.446 0.00883805 142.046 0.0779856C142.174 0.116708 142.265 0.185856 142.324 0.285428C141.636 0.170643 140.942 0.125006 140.241 0.147133Z" fill="#B3BBD6"/>
<path fill-rule="evenodd" clip-rule="evenodd" d="M168.983 0.285428C166.478 0.0724539 163.979 0.118091 161.485 0.423724C161.806 0.2066 162.176 0.0918152 162.596 0.0779856C164.54 -0.0146721 166.484 -0.0146721 168.428 0.0779856C168.644 0.107028 168.829 0.176175 168.983 0.285428Z" fill="#8D98C0"/>
<path fill-rule="evenodd" clip-rule="evenodd" d="M140.241 0.147133C140.942 0.125006 141.636 0.170643 142.324 0.285428C142.535 0.286811 142.696 0.379469 142.809 0.562019C143.795 2.76921 144.559 5.05108 145.101 7.40763C145.102 7.65794 145.009 7.86539 144.823 8.02996C143.166 8.35772 141.5 8.38123 139.824 8.09911C139.581 8.03411 139.351 7.94145 139.13 7.82252C138.08 6.49212 137.155 5.08565 136.353 3.60451C136.363 3.39292 136.271 3.25463 136.075 3.18963C135.739 2.5673 135.37 1.96848 134.964 1.39179C134.841 1.03914 134.795 0.669889 134.826 0.285428C136.625 0.158197 138.43 0.112559 140.241 0.147133Z" fill="white"/>
<path fill-rule="evenodd" clip-rule="evenodd" d="M156.486 2.22156C156.484 2.88538 156.391 3.52983 156.209 4.15769C155.97 4.47301 155.877 4.84226 155.931 5.26406C155.7 5.53235 155.607 5.85458 155.653 6.23212C155.562 6.75903 155.399 7.26657 155.167 7.75337C155.053 7.93592 154.892 8.02858 154.681 8.02996C153.011 8.06038 151.345 8.01475 149.683 7.89166C149.617 7.69667 149.479 7.60539 149.266 7.61507C148.844 7.26104 148.59 6.80052 148.502 6.23212C148.341 5.54618 148.226 4.8547 148.155 4.15769C148.201 3.78015 148.108 3.45792 147.878 3.18963C147.63 2.77336 147.492 2.31284 147.461 1.80668C147.461 1.34615 147.461 0.884247 147.461 0.423724C147.736 0.355959 148.014 0.286811 148.294 0.216281C151.025 0.141601 153.757 0.165112 156.486 0.285428C156.486 0.931267 156.486 1.57711 156.486 2.22156Z" fill="white"/>
<path fill-rule="evenodd" clip-rule="evenodd" d="M168.983 0.285428C169.576 0.537126 169.693 0.952011 169.33 1.53009C167.844 3.7677 166.341 5.98043 164.817 8.16826C162.967 8.16826 161.114 8.16826 159.263 8.16826C159.263 7.9373 159.263 7.70773 159.263 7.47678C159.445 5.8767 159.862 4.35546 160.513 2.91304C160.709 2.84804 160.8 2.70974 160.791 2.49815C160.88 2.0888 160.949 1.67391 160.999 1.25349C161.057 0.904991 161.22 0.628401 161.485 0.423724C163.977 0.119474 166.477 0.0724539 168.983 0.285428Z" fill="white"/>
<path fill-rule="evenodd" clip-rule="evenodd" d="M156.486 2.22156C156.486 1.57572 156.486 0.931267 156.486 0.285428C153.757 0.165112 151.025 0.141601 148.294 0.216281C148.014 0.286811 147.736 0.355959 147.461 0.423724C147.625 0.2066 147.857 0.0918152 148.155 0.0779856C151.018 -0.000842609 153.841 0.0226676 156.625 0.147133C156.668 0.866268 156.622 1.55774 156.486 2.22156Z" fill="#A4ADCD"/>
<path fill-rule="evenodd" clip-rule="evenodd" d="M134.826 0.285428C134.795 0.669889 134.841 1.03914 134.964 1.39179C134.726 1.24381 134.587 1.01286 134.548 0.700314C134.608 0.528828 134.701 0.390533 134.826 0.285428Z" fill="#8C96C0"/>
<path fill-rule="evenodd" clip-rule="evenodd" d="M147.461 0.423724C147.461 0.884247 147.461 1.34615 147.461 1.80668C147.354 1.50519 147.262 1.18158 147.183 0.838609C147.243 0.667123 147.336 0.528828 147.461 0.423724Z" fill="#7380B2"/>
<path fill-rule="evenodd" clip-rule="evenodd" d="M160.513 2.91304C160.709 2.84804 160.8 2.70974 160.791 2.49815C160.594 2.56453 160.503 2.70283 160.513 2.91304Z" fill="#8C97C0"/>
<path fill-rule="evenodd" clip-rule="evenodd" d="M136.353 3.60451C136.363 3.39292 136.271 3.25463 136.075 3.18963C136.065 3.40122 136.156 3.53951 136.353 3.60451Z" fill="#BCC3DB"/>
<path fill-rule="evenodd" clip-rule="evenodd" d="M148.155 4.15769C148.201 3.78015 148.108 3.45792 147.878 3.18963C147.907 3.54505 148.001 3.86727 148.155 4.15769Z" fill="#7783B4"/>
<path fill-rule="evenodd" clip-rule="evenodd" d="M156.209 4.15769C156.167 4.5546 156.074 4.92385 155.931 5.26406C155.875 4.84225 155.97 4.47301 156.209 4.15769Z" fill="#8792BD"/>
<path fill-rule="evenodd" clip-rule="evenodd" d="M155.931 5.26406C155.9 5.61947 155.807 5.9417 155.653 6.23212C155.607 5.85458 155.699 5.53235 155.931 5.26406Z" fill="#7783B4"/>
<path fill-rule="evenodd" clip-rule="evenodd" d="M149.683 7.89166C149.617 7.69667 149.479 7.60539 149.266 7.61507C149.33 7.81007 149.469 7.90273 149.683 7.89166Z" fill="#9DA6C9"/>
<path fill-rule="evenodd" clip-rule="evenodd" d="M149.683 7.89166C151.345 8.01475 153.011 8.06038 154.681 8.02996C154.068 8.22496 153.419 8.31761 152.737 8.30655C151.856 8.25815 150.977 8.189 150.099 8.09911C149.927 8.0673 149.788 7.99815 149.683 7.89166Z" fill="#848FBB"/>
<path fill-rule="evenodd" clip-rule="evenodd" d="M159.263 7.47678C159.263 7.70773 159.263 7.9373 159.263 8.16826C161.114 8.16826 162.967 8.16826 164.817 8.16826C162.944 8.30655 161.046 8.35219 159.125 8.30655C159.083 7.99815 159.13 7.72156 159.263 7.47678Z" fill="#C7CDE1"/>
<path fill-rule="evenodd" clip-rule="evenodd" d="M75.1195 13.1469C75.1195 13.1925 75.1195 13.2395 75.1195 13.2852C67.6673 13.2852 60.2166 13.2852 52.7644 13.2852C53.9766 13.1911 55.204 13.0985 56.444 13.0086C62.6492 12.9629 68.8753 13.01 75.1195 13.1469Z" fill="#7D89B7"/>
<path fill-rule="evenodd" clip-rule="evenodd" d="M77.7577 13.2852C77.4799 13.2852 77.2022 13.2852 76.9245 13.2852C76.3233 13.2852 75.7207 13.2852 75.1195 13.2852C75.1195 13.2395 75.1195 13.1925 75.1195 13.1469C75.1097 13.086 75.1334 13.0404 75.1889 13.0086C76.0581 13.0985 76.9148 13.1911 77.7577 13.2852Z" fill="#939EC4"/>
<path fill-rule="evenodd" clip-rule="evenodd" d="M92.4759 13.2852C90.6236 13.2617 88.7727 13.2852 86.9218 13.3543C86.6927 13.4387 86.4608 13.5078 86.2276 13.5618C86.3053 13.3834 86.4442 13.2686 86.6441 13.216C88.6116 13.1026 90.5556 13.1248 92.4759 13.2852Z" fill="#8E99C1"/>
<path fill-rule="evenodd" clip-rule="evenodd" d="M133.854 13.1469C133.513 13.281 133.144 13.328 132.743 13.2852C133.075 13.187 133.422 13.0943 133.784 13.0086C133.84 13.0404 133.863 13.086 133.854 13.1469Z" fill="#939EC4"/>
<path fill-rule="evenodd" clip-rule="evenodd" d="M193.699 13.1469C193.699 13.1925 193.699 13.2395 193.699 13.2852C191.848 13.2852 189.995 13.2852 188.144 13.2852C189.913 13.1925 191.695 13.0999 193.49 13.0086C193.543 13.086 193.612 13.1317 193.699 13.1469Z" fill="#8C98C0"/>
<path fill-rule="evenodd" clip-rule="evenodd" d="M207.028 13.1469C207.028 13.1925 207.028 13.2395 207.028 13.2852C202.585 13.2852 198.142 13.2852 193.699 13.2852C193.699 13.2395 193.699 13.1925 193.699 13.1469C198.128 12.9629 202.571 12.9629 207.028 13.1469Z" fill="#7984B5"/>
<path fill-rule="evenodd" clip-rule="evenodd" d="M212.86 13.2852C210.916 13.2852 208.972 13.2852 207.028 13.2852C207.028 13.2395 207.028 13.1925 207.028 13.1469C207.019 13.086 207.042 13.0404 207.098 13.0086C209.032 13.0999 210.952 13.1925 212.86 13.2852Z" fill="#909CC2"/>
<path fill-rule="evenodd" clip-rule="evenodd" d="M253.127 13.2852C244.842 13.2852 236.558 13.2852 228.273 13.2852C229.485 13.1911 230.712 13.0985 231.952 13.0086C237.877 13.0086 243.8 13.0086 249.725 13.0086C250.873 13.0999 252.006 13.1911 253.127 13.2852Z" fill="#808BB9"/>
<path fill-rule="evenodd" clip-rule="evenodd" d="M7.77656 13.2852C7.77656 13.3308 7.77656 13.3778 7.77656 13.4235C7.07675 13.411 6.3825 13.458 5.69379 13.5618C5.75211 13.4622 5.84375 13.393 5.9715 13.3543C6.56161 13.3267 7.14062 13.2575 7.70714 13.1469C7.76129 13.1787 7.7849 13.2243 7.77656 13.2852Z" fill="#8895BE"/>
<path fill-rule="evenodd" clip-rule="evenodd" d="M34.436 13.4235C25.5495 13.4235 16.663 13.4235 7.77656 13.4235C7.77656 13.3778 7.77656 13.3308 7.77656 13.2852C11.47 13.1939 15.1718 13.1469 18.8847 13.1469C24.093 13.1206 29.2763 13.2119 34.436 13.4235Z" fill="#7D88B7"/>
<path fill-rule="evenodd" clip-rule="evenodd" d="M52.7644 13.2852C60.2166 13.2852 67.6673 13.2852 75.1195 13.2852C75.7207 13.2852 76.3233 13.2852 76.9245 13.2852C77.4966 13.4525 78.0978 13.5452 78.7296 13.5618C78.8199 13.6683 78.8657 13.8066 78.8685 13.9767C78.6005 15.5546 78.1839 17.0758 77.6188 18.5404C76.5746 18.4948 75.5569 18.5418 74.5641 18.6787C67.4104 18.6593 60.2832 18.7976 53.181 19.0936C53.0005 19.2305 52.8158 19.3688 52.6256 19.5085C52.3812 19.6136 52.2423 19.7989 52.209 20.0616C51.9369 20.4018 51.6355 20.7255 51.3065 21.0297C51.1857 25.7801 51.2315 30.5278 51.4453 35.2741C51.623 36.5326 52.2937 37.4094 53.4587 37.9017C53.517 38.0013 53.6086 38.0704 53.7364 38.1092C54.1043 38.1783 54.4737 38.2004 54.8472 38.1783C55.4304 38.1341 55.9858 38.1811 56.5134 38.3166C62.0438 38.4549 67.5979 38.5005 73.1756 38.4549C74.0753 38.5918 75.0014 38.6375 75.9526 38.5932C76.9065 38.5116 77.6702 38.8338 78.2436 39.5613C78.7477 40.8709 79.0018 42.2082 79.0073 43.5718C75.1264 43.735 71.2386 43.8277 67.3438 43.8484C65.2388 43.7101 63.1102 43.6645 60.9566 43.7101C57.4826 43.717 54.0113 43.6244 50.5428 43.4335C50.1623 43.4045 49.8388 43.2662 49.5708 43.0186C49.3487 42.8015 49.071 42.7089 48.7377 42.7421C48.5253 42.7517 48.3864 42.6605 48.3212 42.4655C48.2559 42.2705 48.1171 42.1792 47.9046 42.1889C47.1048 41.5776 46.4578 40.8405 45.9607 39.9761C45.9704 39.7646 45.8788 39.6263 45.683 39.5613C45.558 39.452 45.465 39.3137 45.4053 39.1464C45.4372 38.7398 45.2984 38.4176 44.9887 38.1783C44.8568 37.9819 44.811 37.751 44.8499 37.4868C44.6763 31.4475 44.6763 25.4081 44.8499 19.3702C45.0082 18.362 45.4247 17.4866 46.0995 16.7426C46.6549 16.282 47.1645 15.7745 47.6269 15.2213C47.8907 15.1881 48.0768 15.0498 48.1823 14.8064C48.4378 14.5174 48.7613 14.3335 49.1543 14.2532C49.7985 14.1011 50.4012 13.8702 50.9593 13.5618C51.5231 13.3474 52.1243 13.2548 52.7644 13.2852Z" fill="white"/>
<path fill-rule="evenodd" clip-rule="evenodd" d="M76.9245 13.2852C77.2022 13.2852 77.4799 13.2852 77.7577 13.2852C78.1367 13.2395 78.4602 13.3322 78.7296 13.5618C78.0978 13.5452 77.4952 13.4525 76.9245 13.2852Z" fill="#6371A8"/>
<path fill-rule="evenodd" clip-rule="evenodd" d="M92.4759 13.2852C92.5828 13.3903 92.6522 13.5286 92.6842 13.7001C92.7994 16.7412 92.8688 19.7837 92.8924 22.8275C92.8924 23.5647 92.8924 24.3032 92.8924 25.0403C95.6695 25.0403 98.4465 25.0403 101.224 25.0403C105.066 25.2242 108.906 25.2242 112.748 25.0403C113.86 25.0638 114.971 25.0403 116.081 24.9711C116.297 24.9421 116.482 24.8729 116.636 24.7637C116.91 24.4497 117.071 24.0819 117.122 23.6573C117.264 20.2912 117.379 16.9265 117.469 13.5618C119.413 13.5618 121.357 13.5618 123.301 13.5618C123.255 23.5882 123.301 33.5924 123.44 43.5718C123.44 43.6175 123.44 43.6645 123.44 43.7101C121.403 43.7405 119.366 43.7876 117.33 43.8484C117.254 39.8572 117.139 35.8467 116.983 31.8167C116.946 31.5637 116.829 31.3562 116.636 31.1944C115.986 31.1349 115.338 31.0658 114.692 30.987C111.476 30.8487 108.237 30.803 104.973 30.8487C107.819 30.7339 110.688 30.6647 113.581 30.6412C106.515 30.543 99.6656 30.6122 93.0313 30.8487C92.9383 30.8487 92.8924 30.8943 92.8924 30.987C92.8924 31.7711 92.8924 32.5538 92.8924 33.338C92.8813 36.8451 92.7897 40.3495 92.6147 43.8484C90.4612 43.8941 88.3326 43.8484 86.2276 43.7101C86.2276 33.6602 86.2276 23.6117 86.2276 13.5618C86.4608 13.5078 86.6927 13.4387 86.9218 13.3543C88.7713 13.2852 90.6236 13.263 92.4759 13.2852Z" fill="white"/>
<path fill-rule="evenodd" clip-rule="evenodd" d="M123.44 43.7101C123.44 43.6645 123.44 43.6175 123.44 43.5718C123.44 33.5219 123.44 23.4734 123.44 13.4235C121.45 13.4235 119.459 13.4235 117.469 13.4235C117.484 13.3377 117.53 13.2686 117.608 13.216C119.585 13.1026 121.553 13.1248 123.509 13.2852C123.624 23.4499 123.601 33.5924 123.44 43.7101Z" fill="#8B95BF"/>
<path fill-rule="evenodd" clip-rule="evenodd" d="M171.482 37.0719C171.513 29.1877 171.467 21.3049 171.343 13.4235C169.4 13.4235 167.456 13.4235 165.512 13.4235C165.556 14.4178 165.51 15.3859 165.373 16.3277C165.33 15.278 165.376 14.2408 165.512 13.216C167.508 13.1026 169.498 13.1261 171.482 13.2852C171.585 19.3937 171.678 25.5008 171.76 31.6093C171.714 33.4541 171.623 35.2755 171.482 37.0719Z" fill="#838FBB"/>
<path fill-rule="evenodd" clip-rule="evenodd" d="M187.728 13.2852C187.867 13.2852 188.006 13.2852 188.144 13.2852C189.995 13.2852 191.848 13.2852 193.699 13.2852C198.142 13.2852 202.585 13.2852 207.028 13.2852C208.972 13.2852 210.916 13.2852 212.86 13.2852C213.234 13.2631 213.603 13.2852 213.971 13.3543C214.126 13.4705 214.219 13.6323 214.249 13.8384C214.014 15.184 213.643 16.4743 213.138 17.7106C212.941 17.99 212.848 18.3122 212.86 18.6787C207.606 18.6331 202.377 18.6787 197.17 18.817C195.272 18.7935 193.374 18.817 191.477 18.8861C190.517 18.8944 189.591 19.0106 188.7 19.2319C187.225 19.8141 186.553 20.9205 186.687 22.551C186.593 26.6998 186.593 30.8487 186.687 34.9975C186.745 35.5078 186.814 36.0154 186.895 36.5188C186.885 36.7304 186.977 36.8687 187.173 36.9337C187.238 37.1287 187.377 37.2199 187.589 37.2102C187.682 37.2102 187.728 37.2559 187.728 37.3485C187.793 37.5435 187.932 37.6348 188.144 37.6251C188.374 37.6473 188.56 37.7399 188.7 37.9017C188.715 37.9875 188.761 38.0566 188.839 38.1092C192.771 38.2737 196.705 38.3429 200.641 38.3166C200.687 38.3166 200.734 38.3166 200.78 38.3166C204.042 38.4549 207.328 38.5005 210.638 38.4549C211.485 38.513 212.318 38.6513 213.138 38.8698C213.124 39.1533 213.217 39.3842 213.415 39.5613C213.54 39.6595 213.588 39.7977 213.554 39.9761C213.711 40.7202 213.896 41.4587 214.11 42.1889C213.974 42.6674 213.928 43.1749 213.971 43.7101C206.982 43.6866 199.993 43.7101 193.004 43.7793C200.086 43.8484 207.167 43.8719 214.249 43.8484C206.844 44.0323 199.437 44.0323 192.032 43.8484C190.204 43.7253 188.353 43.6341 186.478 43.5718C186.213 43.6105 185.981 43.5649 185.784 43.4335C185.606 43.2358 185.374 43.1431 185.09 43.1569C185.044 43.1569 184.997 43.1569 184.951 43.1569C184.886 42.9619 184.747 42.8707 184.534 42.8803C184.121 42.7656 183.75 42.5816 183.424 42.3272C183.318 42.0838 183.132 41.9455 182.868 41.9123C182.803 41.7173 182.664 41.626 182.452 41.6357C180.942 40.4049 180.109 38.8145 179.952 36.8645C179.931 30.8777 179.954 24.8619 180.022 18.817C180.337 18.232 180.684 17.6788 181.063 17.1574C181.259 17.0924 181.35 16.9541 181.341 16.7426C181.537 16.6776 181.628 16.5393 181.618 16.3277C181.618 16.235 181.664 16.1894 181.757 16.1894C182.174 15.8671 182.545 15.4979 182.868 15.083C183.081 15.0927 183.219 15.0014 183.285 14.8064C183.796 14.4593 184.351 14.1827 184.951 13.9767C185.398 13.9988 185.767 13.8605 186.062 13.5618C186.657 13.6033 187.213 13.512 187.728 13.2852Z" fill="white"/>
<path fill-rule="evenodd" clip-rule="evenodd" d="M228.273 13.2852C236.558 13.2852 244.842 13.2852 253.127 13.2852C253.173 13.2852 253.22 13.2852 253.266 13.2852C253.928 13.4774 254.622 13.5701 255.349 13.5618C255.597 13.5438 255.829 13.5894 256.043 13.7001C256.152 13.9213 256.337 14.014 256.598 13.9767C256.776 14.1744 257.008 14.2671 257.292 14.2532C257.522 14.2754 257.708 14.368 257.848 14.5298C257.913 14.7248 258.052 14.8161 258.264 14.8064C258.83 15.0429 259.293 15.4108 259.653 15.9128C259.643 16.1244 259.735 16.2627 259.931 16.3277C260.024 16.3277 260.069 16.3733 260.069 16.466C260.06 16.6776 260.151 16.8159 260.347 16.8809C260.854 17.4769 261.179 18.1684 261.319 18.9553C261.308 19.4089 261.401 19.8238 261.597 20.1999C262.054 25.0126 262.123 29.8529 261.805 34.7209C261.765 35.8854 261.626 37.0374 261.389 38.1783C261.202 38.7329 260.948 39.239 260.625 39.6996C260.311 39.8157 260.172 40.0467 260.208 40.391C260.056 40.6524 259.87 40.882 259.653 41.0825C259.341 41.1627 259.109 41.3467 258.959 41.6357C258.809 41.9178 258.577 42.1031 258.264 42.1889C257.919 42.1529 257.687 42.2912 257.57 42.6038C257.367 42.7752 257.136 42.9135 256.876 43.0186C256.42 43.0781 256.004 43.2164 255.626 43.4335C253.938 43.5041 252.272 43.5953 250.628 43.7101C242.851 43.7405 235.075 43.6935 227.301 43.5718C226.96 43.4377 226.591 43.3907 226.19 43.4335C225.123 43.1556 224.151 42.695 223.274 42.0506C223.209 41.8556 223.07 41.7643 222.857 41.774C222.673 41.6813 222.534 41.543 222.441 41.3591C222.348 41.1752 222.209 41.0369 222.024 40.9442C221.504 40.4934 221.111 39.9402 220.844 39.2847C220.466 38.3042 220.258 37.2891 220.219 36.2422C220.133 33.0144 220.04 29.7879 219.941 26.5615C220.079 25.0195 220.126 23.4513 220.08 21.8595C220.041 20.3092 220.411 18.8806 221.191 17.5723C221.501 17.4479 221.64 17.2169 221.608 16.8809C221.653 16.7426 221.746 16.6499 221.885 16.6043C222.487 16.0967 223.042 15.5435 223.552 14.9447C223.815 14.9115 224.001 14.7732 224.107 14.5298C224.439 14.2726 224.81 14.0873 225.218 13.9767C225.502 13.9905 225.734 13.8978 225.912 13.7001C226.336 13.754 226.706 13.6613 227.023 13.4235C227.424 13.299 227.841 13.2534 228.273 13.2852ZM233.41 18.9553C238.918 18.9318 244.425 18.9553 249.933 19.0244C251 19.0797 252.065 19.1489 253.127 19.2319C253.267 19.3937 253.453 19.4863 253.682 19.5085C253.748 19.7035 253.886 19.7947 254.099 19.7851C254.184 20.052 254.322 20.2829 254.515 20.4765C254.575 20.8236 254.667 21.1459 254.793 21.4446C255.022 24.8978 255.114 28.3552 255.071 31.8167C254.957 32.9189 254.91 34.0253 254.932 35.1358C254.818 35.4774 254.749 35.8467 254.724 36.2422C254.527 36.5063 254.364 36.7829 254.238 37.0719C253.974 37.1051 253.788 37.2434 253.682 37.4868C253.36 37.5546 253.082 37.6929 252.849 37.9017C252.803 37.9017 252.756 37.9017 252.71 37.9017C251.787 38.0165 250.861 38.1092 249.933 38.1783C243.217 38.1894 237.015 38.1894 231.327 38.1783C231.095 38.1783 230.865 38.1783 230.633 38.1783C229.828 38.058 229.042 37.827 228.273 37.4868C228.167 37.2434 227.981 37.1051 227.717 37.0719C227.717 36.9793 227.671 36.9337 227.578 36.9337C227.545 36.6709 227.406 36.4856 227.162 36.3805C226.781 31.7407 226.712 27.1313 226.953 22.551C226.92 21.0947 227.499 19.9883 228.689 19.2319C230.286 19.1683 231.858 19.0756 233.41 18.9553Z" fill="white"/>
<path fill-rule="evenodd" clip-rule="evenodd" d="M7.77656 13.4235C16.663 13.4235 25.5495 13.4235 34.436 13.4235C34.8206 13.5839 35.2372 13.6752 35.6857 13.7001C35.5927 15.4343 35.0831 17.0247 34.1583 18.4712C33.5682 18.6372 32.967 18.7063 32.3533 18.6787C27.0769 18.6552 21.8005 18.6787 16.5242 18.7478C13.9971 18.752 11.4978 18.8668 9.02623 19.0936C7.83488 19.4269 7.0712 20.211 6.73518 21.4446C6.50191 22.0973 6.54912 22.7432 6.87403 23.3807C7.10452 23.8164 7.36001 24.2312 7.63771 24.6254C7.70297 24.8204 7.84182 24.9117 8.05427 24.902C8.26254 24.9697 8.44722 25.0624 8.60967 25.1786C9.83018 25.3763 11.0798 25.4925 12.3587 25.5243C16.9408 25.5934 21.5228 25.617 26.1049 25.5934C26.6145 25.5934 27.1227 25.5934 27.6323 25.5934C28.9083 25.7304 30.2038 25.8687 31.5201 26.0083C32.1339 26.0581 32.6893 26.2421 33.1864 26.5615C33.3266 26.7233 33.5127 26.816 33.7418 26.8381C34.1167 26.8851 34.3944 27.0704 34.5749 27.3913C34.6401 27.5863 34.779 27.6776 34.9914 27.6679C36.7646 29.51 37.5518 31.7227 37.3519 34.306C37.3936 35.9435 37.2325 37.556 36.8659 39.1464C36.3813 40.2527 35.6635 41.1752 34.7137 41.9123C34.5013 41.9026 34.3624 41.9939 34.2972 42.1889C34.2319 42.3839 34.0931 42.4751 33.8806 42.4655C33.6682 42.4558 33.5293 42.5471 33.4641 42.7421C32.8601 43.1348 32.2116 43.457 31.5201 43.7101C25.6648 43.6645 19.833 43.7101 14.0249 43.8484C9.95236 43.735 5.87985 43.6894 1.80596 43.7101C1.60879 43.5787 1.37691 43.5331 1.1117 43.5718C1.1117 43.1113 1.1117 42.6494 1.1117 42.1889C1.12142 41.7837 1.21306 41.4158 1.3894 41.0825C1.6199 40.8142 1.71293 40.492 1.6671 40.1144C1.72681 39.7466 1.86566 39.4244 2.08366 39.1464C2.27944 39.0814 2.37108 38.9431 2.36136 38.7315C2.36136 38.6388 2.40718 38.5932 2.50021 38.5932C9.04428 38.5019 15.5703 38.4106 22.0783 38.3166C24.3929 38.3401 26.7076 38.3166 29.0208 38.2475C29.4304 37.91 29.754 37.5186 29.9928 37.0719C30.1886 37.007 30.2802 36.8687 30.2705 36.6571C30.5412 36.5838 30.6801 36.3985 30.687 36.1039C31.048 34.7182 30.794 33.4279 29.9234 32.2316C29.7095 31.9716 29.454 31.7642 29.1597 31.6093C28.0752 31.4876 27.0103 31.3728 25.9661 31.2636C21.1757 31.1253 16.3631 31.0796 11.5256 31.1253C10.2967 31.1709 9.09287 31.1239 7.91542 30.987C6.66436 30.7795 5.4147 30.5029 4.16643 30.1572C4.10117 29.9622 3.96232 29.8709 3.74988 29.8806C3.48606 29.8474 3.3 29.7091 3.19447 29.4657C3.12921 29.2707 2.99036 29.1794 2.77792 29.1891C1.42689 28.1201 0.593784 26.7372 0.278592 25.0403C0.313304 24.4926 0.220274 23.9865 0.000888859 23.519C0.000888859 22.6436 0.000888859 21.7668 0.000888859 20.8914C0.195281 20.4198 0.288311 19.9123 0.278592 19.3702C0.342463 18.5791 0.620166 17.8876 1.1117 17.2957C1.30748 17.2307 1.39912 17.0924 1.3894 16.8809C1.58518 16.8159 1.67682 16.6776 1.6671 16.466C1.80734 16.2765 1.9462 16.0912 2.08366 15.9128C2.67655 15.5532 3.18614 15.0927 3.61102 14.5298C3.82347 14.5395 3.96232 14.4482 4.02758 14.2532C4.35527 14.2754 4.67879 14.2532 4.99954 14.1841C5.07729 14.1315 5.12312 14.0624 5.13839 13.9767C5.24392 13.7333 5.42998 13.595 5.69379 13.5618C6.3825 13.458 7.07675 13.4124 7.77656 13.4235Z" fill="white"/>
<path fill-rule="evenodd" clip-rule="evenodd" d="M132.743 13.2852C132.65 13.4691 132.511 13.6074 132.326 13.7001C132.326 13.4235 132.465 13.2852 132.743 13.2852Z" fill="#9AA5C8"/>
<path fill-rule="evenodd" clip-rule="evenodd" d="M140.102 37.072C140.102 37.3485 140.241 37.4868 140.518 37.4868C140.611 37.5325 140.703 37.5795 140.796 37.6251C140.954 37.8616 141.185 37.9543 141.49 37.9017C142.485 37.9653 143.457 38.058 144.406 38.1783C148.548 38.3166 152.714 38.3622 156.903 38.3166C158.271 38.3622 159.612 38.3152 160.93 38.1783C161.674 38.1548 162.414 38.0857 163.151 37.9709C163.229 37.9183 163.275 37.8492 163.29 37.7634C163.43 37.6016 163.616 37.509 163.845 37.4868C164.279 37.3776 164.511 37.101 164.54 36.6571C164.581 36.3943 164.673 36.1634 164.817 35.9656C165.051 35.4069 165.142 34.8067 165.095 34.1678C165.267 28.1077 165.359 22.161 165.373 16.3277C165.51 15.3859 165.556 14.4178 165.512 13.4235C167.456 13.4235 169.4 13.4235 171.343 13.4235C171.467 21.3049 171.513 29.1877 171.482 37.0719C171.332 37.5048 171.239 37.9653 171.205 38.4549C170.644 40.3966 169.44 41.7795 167.594 42.6038C167.097 42.6356 166.681 42.8195 166.345 43.1569C166.027 43.1694 165.749 43.262 165.512 43.4335C165.363 43.5621 165.178 43.6092 164.956 43.5718C164.555 43.529 164.186 43.576 163.845 43.7101C155.931 43.8899 148.016 43.8899 140.102 43.7101C140.056 43.7101 140.009 43.7101 139.963 43.7101C139.391 43.511 138.79 43.3727 138.158 43.2952C138.112 43.2952 138.065 43.2952 138.019 43.2952C137.909 43.074 137.725 42.9813 137.464 43.0186C137.235 42.9965 137.049 42.9039 136.908 42.7421C136.768 42.5802 136.582 42.4876 136.353 42.4655C136.288 42.2705 136.149 42.1792 135.936 42.1889C135.624 42.1087 135.392 41.9247 135.242 41.6357C135.177 41.4407 135.038 41.3494 134.826 41.3591C134.792 41.0963 134.653 40.911 134.409 40.8059C133.652 40.084 133.143 39.2072 132.882 38.1783C132.693 36.8493 132.578 35.512 132.535 34.1678C132.373 27.3456 132.304 20.5235 132.326 13.7001C132.511 13.6074 132.65 13.4691 132.743 13.2852C133.144 13.328 133.513 13.281 133.854 13.1469C135.421 12.9754 136.994 12.9975 138.575 13.216C138.829 13.2852 138.991 13.447 139.061 13.7001C139.209 15.7565 139.324 17.8074 139.408 19.8542C139.287 20.1349 139.24 20.4585 139.269 20.8223C139.384 25.1219 139.453 29.4325 139.477 33.7529C139.462 34.9104 139.67 36.0168 140.102 37.072Z" fill="white"/>
<path fill-rule="evenodd" clip-rule="evenodd" d="M186.062 13.5618C186.657 13.6033 187.213 13.512 187.728 13.2852C187.135 13.2644 186.58 13.3557 186.062 13.5618Z" fill="#8590BC"/>
<path fill-rule="evenodd" clip-rule="evenodd" d="M255.349 13.5618C254.622 13.5701 253.928 13.4774 253.266 13.2852C253.256 13.2243 253.28 13.1787 253.335 13.1469C254.027 13.2409 254.697 13.3792 255.349 13.5618Z" fill="#8591BC"/>
<path fill-rule="evenodd" clip-rule="evenodd" d="M34.436 13.4235C34.9053 13.364 35.3219 13.4553 35.6857 13.7001C35.2372 13.6766 34.8206 13.5839 34.436 13.4235Z" fill="#8590BC"/>
<path fill-rule="evenodd" clip-rule="evenodd" d="M117.469 13.5618C117.469 13.5161 117.469 13.4691 117.469 13.4235C119.459 13.4235 121.45 13.4235 123.44 13.4235C123.44 23.4734 123.44 33.5219 123.44 43.5718C123.301 33.5924 123.255 23.5882 123.301 13.5618C121.357 13.5618 119.413 13.5618 117.469 13.5618Z" fill="white"/>
<path fill-rule="evenodd" clip-rule="evenodd" d="M225.912 13.7001C226.336 13.754 226.706 13.6613 227.023 13.4235C226.615 13.4332 226.247 13.5244 225.912 13.7001Z" fill="#8B96BF"/>
<path fill-rule="evenodd" clip-rule="evenodd" d="M49.1543 14.2532C49.7985 14.1011 50.4012 13.8702 50.9593 13.5618C50.2692 13.6074 49.668 13.837 49.1543 14.2532Z" fill="#97A1C6"/>
<path fill-rule="evenodd" clip-rule="evenodd" d="M184.951 13.9767C185.398 13.9988 185.767 13.8605 186.062 13.5618C185.638 13.595 185.269 13.7333 184.951 13.9767Z" fill="#8893BE"/>
<path fill-rule="evenodd" clip-rule="evenodd" d="M225.218 13.9767C225.502 13.9905 225.734 13.8978 225.912 13.7001C225.626 13.6862 225.396 13.7789 225.218 13.9767Z" fill="#A7B1CF"/>
<path fill-rule="evenodd" clip-rule="evenodd" d="M256.043 13.7001C256.272 13.7222 256.458 13.8148 256.598 13.9767C256.336 14.014 256.152 13.9227 256.043 13.7001Z" fill="#AFB8D4"/>
<path fill-rule="evenodd" clip-rule="evenodd" d="M5.13839 13.9767C5.12312 14.0624 5.07729 14.1315 4.99954 14.1841C4.67879 14.2532 4.35527 14.2754 4.02758 14.2532C4.36915 14.1108 4.7385 14.0181 5.13839 13.9767Z" fill="#717DB0"/>
<path fill-rule="evenodd" clip-rule="evenodd" d="M256.598 13.9767C256.883 13.9628 257.115 14.0555 257.292 14.2532C257.006 14.2671 256.776 14.1744 256.598 13.9767Z" fill="#A4AECE"/>
<path fill-rule="evenodd" clip-rule="evenodd" d="M3.61102 14.5298C3.82347 14.5395 3.96232 14.4482 4.02758 14.2532C3.81514 14.2436 3.67628 14.3362 3.61102 14.5298Z" fill="#97A2C7"/>
<path fill-rule="evenodd" clip-rule="evenodd" d="M223.552 14.9447C223.815 14.9115 224.001 14.7732 224.107 14.5298C223.842 14.563 223.657 14.7013 223.552 14.9447Z" fill="#929CC3"/>
<path fill-rule="evenodd" clip-rule="evenodd" d="M257.848 14.5298C258.06 14.5202 258.199 14.6114 258.264 14.8064C258.051 14.8175 257.912 14.7248 257.848 14.5298Z" fill="#A4AECE"/>
<path fill-rule="evenodd" clip-rule="evenodd" d="M47.6269 15.2213C47.8907 15.1881 48.0768 15.0498 48.1823 14.8064C47.9171 14.8396 47.7324 14.9779 47.6269 15.2213Z" fill="#929CC3"/>
<path fill-rule="evenodd" clip-rule="evenodd" d="M182.868 15.083C183.081 15.0927 183.219 15.0014 183.285 14.8064C183.071 14.7967 182.932 14.8894 182.868 15.083Z" fill="#97A2C7"/>
<path fill-rule="evenodd" clip-rule="evenodd" d="M2.08366 15.9128C2.67655 15.5532 3.18614 15.0927 3.61102 14.5298C3.01674 14.8894 2.50854 15.3513 2.08366 15.9128Z" fill="#707CB0"/>
<path fill-rule="evenodd" clip-rule="evenodd" d="M221.885 16.6043C222.487 16.0967 223.042 15.5435 223.552 14.9447C222.857 15.3596 222.302 15.9128 221.885 16.6043Z" fill="#7480B2"/>
<path fill-rule="evenodd" clip-rule="evenodd" d="M181.757 16.1894C182.174 15.8671 182.545 15.4979 182.868 15.083C182.357 15.314 181.989 15.6832 181.757 16.1894Z" fill="#7F8AB8"/>
<path fill-rule="evenodd" clip-rule="evenodd" d="M46.0995 16.7426C46.6549 16.282 47.1645 15.7745 47.6269 15.2213C46.9785 15.5906 46.4689 16.0981 46.0995 16.7426Z" fill="#7F8AB9"/>
<path fill-rule="evenodd" clip-rule="evenodd" d="M259.653 15.9128C259.849 15.9778 259.94 16.1161 259.931 16.3277C259.733 16.2627 259.643 16.1244 259.653 15.9128Z" fill="#8C97C0"/>
<path fill-rule="evenodd" clip-rule="evenodd" d="M1.3894 16.8809C1.58518 16.8159 1.67682 16.6776 1.6671 16.466C1.47132 16.5323 1.37829 16.6706 1.3894 16.8809Z" fill="#9DA7CA"/>
<path fill-rule="evenodd" clip-rule="evenodd" d="M181.341 16.7426C181.537 16.6776 181.628 16.5393 181.618 16.3277C181.421 16.3941 181.331 16.5323 181.341 16.7426Z" fill="#8893BE"/>
<path fill-rule="evenodd" clip-rule="evenodd" d="M260.069 16.466C260.265 16.531 260.357 16.6693 260.347 16.8809C260.15 16.8159 260.06 16.6776 260.069 16.466Z" fill="#8893BE"/>
<path fill-rule="evenodd" clip-rule="evenodd" d="M181.063 17.1574C181.259 17.0924 181.35 16.9541 181.341 16.7426C181.144 16.8089 181.053 16.9472 181.063 17.1574Z" fill="#8893BE"/>
<path fill-rule="evenodd" clip-rule="evenodd" d="M1.1117 17.2957C1.30748 17.2307 1.39912 17.0924 1.3894 16.8809C1.19362 16.9472 1.10059 17.0855 1.1117 17.2957Z" fill="#8893BE"/>
<path fill-rule="evenodd" clip-rule="evenodd" d="M221.191 17.5723C221.501 17.4479 221.64 17.2169 221.608 16.8809C221.413 17.0745 221.274 17.3054 221.191 17.5723Z" fill="#8A94BE"/>
<path fill-rule="evenodd" clip-rule="evenodd" d="M132.326 13.7001C132.304 20.5235 132.373 27.3456 132.535 34.1678C132.578 35.512 132.693 36.8493 132.882 38.1783C132.683 37.7081 132.568 37.2006 132.535 36.6571C132.201 29.0619 132.132 21.4086 132.326 13.7001Z" fill="#A6B0CF"/>
<path fill-rule="evenodd" clip-rule="evenodd" d="M213.138 17.7106C213.15 18.0771 213.057 18.3993 212.86 18.6787C212.848 18.3122 212.939 17.99 213.138 17.7106Z" fill="#B6BED8"/>
<path fill-rule="evenodd" clip-rule="evenodd" d="M74.5641 18.6787C75.5569 18.5418 76.5746 18.4948 77.6188 18.5404C76.869 18.6358 76.1053 18.7271 75.3277 18.817C75.1681 18.8004 75.007 18.7548 74.8418 18.6787C74.7487 18.6787 74.6557 18.6787 74.5641 18.6787Z" fill="#828FBB"/>
<path fill-rule="evenodd" clip-rule="evenodd" d="M32.3533 18.6787C30.6315 18.7727 28.8959 18.864 27.1463 18.9553C23.675 18.9096 20.2038 18.8626 16.7325 18.817C14.1734 18.9401 11.6047 19.0313 9.02623 19.0936C11.4978 18.8668 13.9971 18.752 16.5242 18.7478C21.7992 18.6787 27.0755 18.6566 32.3533 18.6787Z" fill="#9AA5C8"/>
<path fill-rule="evenodd" clip-rule="evenodd" d="M197.17 18.817C202.377 18.6787 207.606 18.6331 212.86 18.6787C212.821 18.7879 212.752 18.8806 212.652 18.9553C207.561 18.817 202.446 18.7713 197.309 18.817C197.263 18.817 197.214 18.817 197.17 18.817Z" fill="#929DC3"/>
<path fill-rule="evenodd" clip-rule="evenodd" d="M74.5641 18.6787C74.6571 18.6787 74.7487 18.6787 74.8418 18.6787C67.5299 18.8502 60.3096 18.9885 53.181 19.0936C60.2818 18.7976 67.4104 18.6593 74.5641 18.6787Z" fill="#A5AFCE"/>
<path fill-rule="evenodd" clip-rule="evenodd" d="M232.021 18.9553C238.107 18.7949 244.217 18.7713 250.35 18.8861C251.311 18.8875 252.237 19.0023 253.127 19.2319C252.065 19.1489 251 19.0797 249.933 19.0244C244.425 18.9553 238.918 18.9318 233.41 18.9553C232.948 18.9553 232.482 18.9553 232.021 18.9553Z" fill="#96A1C6"/>
<path fill-rule="evenodd" clip-rule="evenodd" d="M197.17 18.817C197.216 18.817 197.263 18.817 197.309 18.817C194.458 18.9179 191.589 19.0562 188.7 19.2319C189.591 19.0106 190.517 18.8944 191.477 18.8861C193.374 18.817 195.27 18.7949 197.17 18.817Z" fill="#B5BDD7"/>
<path fill-rule="evenodd" clip-rule="evenodd" d="M232.021 18.9553C232.484 18.9553 232.948 18.9553 233.41 18.9553C231.859 19.0756 230.286 19.1669 228.689 19.2319C229.767 18.9871 230.877 18.8958 232.021 18.9553Z" fill="#A4AECE"/>
<path fill-rule="evenodd" clip-rule="evenodd" d="M253.682 19.5085C253.895 19.4988 254.034 19.5901 254.099 19.7851C253.885 19.7961 253.746 19.7035 253.682 19.5085Z" fill="#909CC2"/>
<path fill-rule="evenodd" clip-rule="evenodd" d="M52.6256 19.5085C52.5922 19.7712 52.4534 19.9565 52.209 20.0616C52.2409 19.7989 52.3798 19.6136 52.6256 19.5085Z" fill="#B2BAD5"/>
<path fill-rule="evenodd" clip-rule="evenodd" d="M261.319 18.9553C261.544 19.3245 261.636 19.7394 261.597 20.1999C261.4 19.8238 261.308 19.4089 261.319 18.9553Z" fill="#8490BC"/>
<path fill-rule="evenodd" clip-rule="evenodd" d="M0.000888859 20.8914C0.195281 20.4198 0.288311 19.9123 0.278592 19.3702C0.0828111 19.8418 -0.0102192 20.3493 0.000888859 20.8914Z" fill="#7D8BB8"/>
<path fill-rule="evenodd" clip-rule="evenodd" d="M254.515 20.4765C254.602 20.4917 254.671 20.5374 254.724 20.6148C254.793 20.8873 254.815 21.1639 254.793 21.4446C254.665 21.1473 254.575 20.8236 254.515 20.4765Z" fill="#7784B4"/>
<path fill-rule="evenodd" clip-rule="evenodd" d="M86.2276 13.5618C86.2276 23.6117 86.2276 33.6602 86.2276 43.7101C86.129 35.9656 86.036 28.1975 85.9499 20.4074C86.0026 18.1781 86.0957 15.8962 86.2276 13.5618Z" fill="#8995BE"/>
<path fill-rule="evenodd" clip-rule="evenodd" d="M0.278592 25.0403C0.313304 24.4926 0.220274 23.9865 0.000888859 23.519C-0.0102192 24.0625 0.0828111 24.5687 0.278592 25.0403Z" fill="#919DC3"/>
<path fill-rule="evenodd" clip-rule="evenodd" d="M220.08 21.8595C220.126 23.4513 220.079 25.0195 219.941 26.5615C219.864 26.2116 219.818 25.8659 219.803 25.5243C219.893 24.2893 219.984 23.0682 220.08 21.8595Z" fill="#949FC5"/>
<path fill-rule="evenodd" clip-rule="evenodd" d="M7.63771 24.6254C7.85016 24.6157 7.98901 24.707 8.05427 24.902C7.84182 24.913 7.70297 24.8204 7.63771 24.6254Z" fill="#ACB5D2"/>
<path fill-rule="evenodd" clip-rule="evenodd" d="M92.8924 22.8275C93.0299 23.4914 93.0757 24.1828 93.0313 24.902C95.8791 24.8563 98.702 24.902 101.501 25.0403C101.408 25.0403 101.317 25.0403 101.224 25.0403C98.4465 25.0403 95.6695 25.0403 92.8924 25.0403C92.8924 24.3032 92.8924 23.566 92.8924 22.8275Z" fill="#BFC6DD"/>
<path fill-rule="evenodd" clip-rule="evenodd" d="M116.636 24.7637C116.482 24.8729 116.297 24.9421 116.081 24.9711C114.971 25.0403 113.86 25.0638 112.748 25.0403C112.655 25.0403 112.564 25.0403 112.47 25.0403C113.837 24.9296 115.225 24.8384 116.636 24.7637Z" fill="#ACB5D2"/>
<path fill-rule="evenodd" clip-rule="evenodd" d="M112.47 25.0403C112.564 25.0403 112.655 25.0403 112.748 25.0403C108.906 25.2242 105.066 25.2242 101.224 25.0403C101.317 25.0403 101.408 25.0403 101.501 25.0403C105.089 25.0334 108.746 25.0334 112.47 25.0403Z" fill="#7D8BB8"/>
<path fill-rule="evenodd" clip-rule="evenodd" d="M8.60967 25.1786C14.4623 25.3528 20.294 25.4911 26.1049 25.5934C21.5228 25.617 16.9408 25.5934 12.3587 25.5243C11.0798 25.4925 9.83018 25.3777 8.60967 25.1786Z" fill="#A9B1D0"/>
<path fill-rule="evenodd" clip-rule="evenodd" d="M27.6323 25.5934C28.9694 25.5367 30.2649 25.675 31.5201 26.0083C30.2038 25.87 28.907 25.7317 27.6323 25.5934Z" fill="#A9B2D1"/>
<path fill-rule="evenodd" clip-rule="evenodd" d="M254.793 21.4446C255.022 22.096 255.139 22.7874 255.14 23.519C255.255 26.3084 255.232 29.0743 255.071 31.8167C255.114 28.3552 255.022 24.8978 254.793 21.4446Z" fill="#7785B4"/>
<path fill-rule="evenodd" clip-rule="evenodd" d="M33.1864 26.5615C33.4474 26.5242 33.6321 26.6168 33.7418 26.8381C33.5113 26.816 33.3266 26.7247 33.1864 26.5615Z" fill="#9CA6C9"/>
<path fill-rule="evenodd" clip-rule="evenodd" d="M34.5749 27.3913C34.7873 27.3816 34.9262 27.4729 34.9914 27.6679C34.779 27.6789 34.6401 27.5863 34.5749 27.3913Z" fill="#ACB5D2"/>
<path fill-rule="evenodd" clip-rule="evenodd" d="M220.219 36.2422C220.133 33.0144 220.04 29.7879 219.941 26.5615C219.793 29.5362 219.886 32.7627 220.219 36.2422Z" fill="#9CA6C9"/>
<path fill-rule="evenodd" clip-rule="evenodd" d="M44.8499 19.3702C44.6763 25.4081 44.6763 31.4475 44.8499 37.4868C44.6388 34.2162 44.5458 30.9206 44.5722 27.5987C44.5958 25.3169 44.618 23.035 44.6416 20.7531C44.6652 20.2663 44.7346 19.8044 44.8499 19.3702Z" fill="#A2ACCD"/>
<path fill-rule="evenodd" clip-rule="evenodd" d="M3.19447 29.4657C3.12921 29.2707 2.99036 29.1794 2.77792 29.1891C2.84318 29.3841 2.98203 29.4768 3.19447 29.4657Z" fill="#9DA7CA"/>
<path fill-rule="evenodd" clip-rule="evenodd" d="M4.16643 30.1572C4.10117 29.9622 3.96232 29.8709 3.74988 29.8806C3.81514 30.0756 3.95399 30.1683 4.16643 30.1572Z" fill="#A4AECE"/>
<path fill-rule="evenodd" clip-rule="evenodd" d="M7.91542 30.987C6.66436 30.7795 5.4147 30.5029 4.16643 30.1572C5.33 30.7436 6.57828 31.0202 7.91542 30.987Z" fill="#848FBB"/>
<path fill-rule="evenodd" clip-rule="evenodd" d="M104.973 30.8487C100.992 30.8487 97.0122 30.8487 93.0313 30.8487C99.6656 30.6122 106.515 30.543 113.581 30.6412C110.688 30.6647 107.818 30.7339 104.973 30.8487Z" fill="white"/>
<path fill-rule="evenodd" clip-rule="evenodd" d="M92.8924 30.987C92.8924 30.8943 92.9383 30.8487 93.0313 30.8487C97.0122 30.8487 100.992 30.8487 104.973 30.8487C108.237 30.803 111.476 30.8487 114.692 30.987C108.508 30.9883 102.352 30.9883 96.2249 30.987C95.1141 30.987 94.0033 30.987 92.8924 30.987Z" fill="#8B96BF"/>
<path fill-rule="evenodd" clip-rule="evenodd" d="M11.5256 31.1253C16.3631 31.0796 21.1757 31.1253 25.9661 31.2636C25.6731 31.3009 25.3718 31.3465 25.0636 31.4018C20.537 31.3106 16.0243 31.2179 11.5256 31.1253Z" fill="#8E9AC1"/>
<path fill-rule="evenodd" clip-rule="evenodd" d="M92.8924 30.987C94.0033 30.987 95.1141 30.987 96.2249 30.987C95.1863 31.1239 94.1213 31.1709 93.0313 31.1253C93.0757 31.89 93.0299 32.6271 92.8924 33.338C92.8924 32.5552 92.8924 31.7711 92.8924 30.987Z" fill="#C2C9DE"/>
<path fill-rule="evenodd" clip-rule="evenodd" d="M164.817 35.9656C165.051 35.4069 165.142 34.8067 165.095 34.1678C164.947 34.7403 164.855 35.3391 164.817 35.9656Z" fill="#7380B2"/>
<path fill-rule="evenodd" clip-rule="evenodd" d="M254.932 35.1358C255.099 35.9448 254.867 36.5907 254.238 37.0719C254.364 36.7829 254.527 36.5063 254.724 36.2422C254.749 35.8467 254.818 35.4774 254.932 35.1358Z" fill="#7C89B7"/>
<path fill-rule="evenodd" clip-rule="evenodd" d="M30.2705 36.6571C30.5412 36.5838 30.6801 36.3985 30.687 36.1039C30.4815 36.2339 30.3427 36.4178 30.2705 36.6571Z" fill="#909AC2"/>
<path fill-rule="evenodd" clip-rule="evenodd" d="M227.578 36.9337C227.545 36.6709 227.406 36.4856 227.162 36.3805C227.194 36.6446 227.332 36.8286 227.578 36.9337Z" fill="#8D98C0"/>
<path fill-rule="evenodd" clip-rule="evenodd" d="M29.9928 37.0719C30.1886 37.007 30.2802 36.8687 30.2705 36.6571C30.0747 36.7234 29.9817 36.8617 29.9928 37.0719Z" fill="#9DA7CA"/>
<path fill-rule="evenodd" clip-rule="evenodd" d="M186.895 36.5188C187.091 36.5838 187.182 36.7221 187.173 36.9337C186.975 36.8687 186.885 36.7304 186.895 36.5188Z" fill="#8C97C0"/>
<path fill-rule="evenodd" clip-rule="evenodd" d="M187.173 36.9337C187.385 36.924 187.524 37.0152 187.589 37.2102C187.375 37.2213 187.236 37.1287 187.173 36.9337Z" fill="#ACB5D2"/>
<path fill-rule="evenodd" clip-rule="evenodd" d="M228.273 37.4868C228.167 37.2434 227.981 37.1051 227.717 37.0719C227.823 37.3153 228.007 37.4536 228.273 37.4868Z" fill="#A5AECE"/>
<path fill-rule="evenodd" clip-rule="evenodd" d="M140.102 37.072C140.287 37.1646 140.425 37.3029 140.518 37.4868C140.241 37.4868 140.102 37.3485 140.102 37.072Z" fill="#A5AECE"/>
<path fill-rule="evenodd" clip-rule="evenodd" d="M163.845 37.4868C164.279 37.3776 164.511 37.101 164.54 36.6571C164.311 36.9309 164.08 37.2075 163.845 37.4868Z" fill="#7682B3"/>
<path fill-rule="evenodd" clip-rule="evenodd" d="M254.238 37.0719C254.132 37.3153 253.946 37.4536 253.682 37.4868C253.788 37.2434 253.973 37.1051 254.238 37.0719Z" fill="#8F9BC2"/>
<path fill-rule="evenodd" clip-rule="evenodd" d="M171.482 37.0719C171.53 37.5781 171.436 38.0386 171.205 38.4549C171.239 37.9653 171.332 37.5048 171.482 37.0719Z" fill="#A1ABCC"/>
<path fill-rule="evenodd" clip-rule="evenodd" d="M187.728 37.3485C187.94 37.3389 188.079 37.4301 188.144 37.6251C187.931 37.6362 187.792 37.5435 187.728 37.3485Z" fill="#B4BCD6"/>
<path fill-rule="evenodd" clip-rule="evenodd" d="M228.273 37.4868C229.042 37.827 229.828 38.058 230.633 38.1783C230.355 38.1783 230.078 38.1783 229.8 38.1783C229.379 38.0857 228.963 37.9695 228.55 37.8326C228.427 37.7344 228.334 37.6196 228.273 37.4868Z" fill="#A6AFCE"/>
<path fill-rule="evenodd" clip-rule="evenodd" d="M253.682 37.4868C253.487 37.769 253.209 37.9073 252.849 37.9017C253.082 37.6929 253.36 37.5546 253.682 37.4868Z" fill="#9CA6C9"/>
<path fill-rule="evenodd" clip-rule="evenodd" d="M140.796 37.6251C141.06 37.6666 141.292 37.7579 141.49 37.9017C141.185 37.9543 140.954 37.863 140.796 37.6251Z" fill="#B1B9D5"/>
<path fill-rule="evenodd" clip-rule="evenodd" d="M53.4587 37.9017C53.946 37.957 54.4084 38.0497 54.8472 38.1783C54.4737 38.2004 54.1043 38.1783 53.7364 38.1092C53.6086 38.0704 53.5156 38.0013 53.4587 37.9017Z" fill="#B1B9D5"/>
<path fill-rule="evenodd" clip-rule="evenodd" d="M163.29 37.7634C163.275 37.8492 163.229 37.9183 163.151 37.9709C162.414 38.0857 161.674 38.1548 160.93 38.1783C160.281 38.1783 159.634 38.1783 158.986 38.1783C160.406 38.0884 161.84 37.9501 163.29 37.7634Z" fill="#B3BBD6"/>
<path fill-rule="evenodd" clip-rule="evenodd" d="M29.9928 37.0719C29.754 37.5186 29.4304 37.91 29.0208 38.2475C26.7076 38.3166 24.3929 38.3401 22.0783 38.3166C15.6911 38.3166 9.30393 38.3166 2.91677 38.3166C11.5478 38.2018 20.2038 38.1327 28.882 38.1092C29.2333 37.7358 29.604 37.39 29.9928 37.0719Z" fill="#99A3C7"/>
<path fill-rule="evenodd" clip-rule="evenodd" d="M156.903 38.1783C156.903 38.2239 156.903 38.271 156.903 38.3166C152.714 38.3622 148.548 38.3166 144.406 38.1783C148.543 38.1755 152.708 38.1755 156.903 38.1783Z" fill="#ABB4D1"/>
<path fill-rule="evenodd" clip-rule="evenodd" d="M158.986 38.1783C159.634 38.1783 160.281 38.1783 160.93 38.1783C159.612 38.3152 158.271 38.3622 156.903 38.3166C156.903 38.271 156.903 38.2239 156.903 38.1783C157.625 38.1603 158.319 38.1603 158.986 38.1783Z" fill="#5D6EA6"/>
<path fill-rule="evenodd" clip-rule="evenodd" d="M188.7 37.9017C192.66 38.0801 196.641 38.2184 200.641 38.3166C196.705 38.3429 192.771 38.2737 188.839 38.1092C188.76 38.0566 188.714 37.9875 188.7 37.9017Z" fill="#9DA7CA"/>
<path fill-rule="evenodd" clip-rule="evenodd" d="M252.71 37.9017C251.829 38.1963 250.902 38.3346 249.933 38.3166C249.933 38.271 249.933 38.2239 249.933 38.1783C250.861 38.1092 251.786 38.0165 252.71 37.9017Z" fill="#8996BF"/>
<path fill-rule="evenodd" clip-rule="evenodd" d="M2.91677 38.3166C9.30393 38.3166 15.6911 38.3166 22.0783 38.3166C15.5703 38.4106 9.04428 38.5019 2.50021 38.5932C2.56547 38.3996 2.70432 38.3069 2.91677 38.3166Z" fill="white"/>
<path fill-rule="evenodd" clip-rule="evenodd" d="M73.1756 38.4549C67.5979 38.5005 62.0438 38.4549 56.5134 38.3166C56.5995 38.3014 56.6689 38.2558 56.7217 38.1783C62.2188 38.271 67.7034 38.3622 73.1756 38.4549Z" fill="#AFB7D4"/>
<path fill-rule="evenodd" clip-rule="evenodd" d="M212.999 38.4549C212.212 38.4549 211.426 38.4549 210.638 38.4549C207.328 38.5005 204.042 38.4549 200.78 38.3166C200.88 38.2779 200.995 38.2309 201.127 38.1783C205.097 38.271 209.054 38.3622 212.999 38.4549Z" fill="#8C98C0"/>
<path fill-rule="evenodd" clip-rule="evenodd" d="M229.8 38.1783C230.078 38.1783 230.355 38.1783 230.633 38.1783C230.865 38.1783 231.095 38.1783 231.327 38.1783C231.976 38.271 232.623 38.3622 233.271 38.4549C232.083 38.4839 230.926 38.3927 229.8 38.1783Z" fill="white"/>
<path fill-rule="evenodd" clip-rule="evenodd" d="M231.327 38.1783C237.015 38.1894 243.217 38.1894 249.933 38.1783C249.933 38.2239 249.933 38.271 249.933 38.3166C244.381 38.4425 238.827 38.4881 233.271 38.4549C232.621 38.3636 231.976 38.271 231.327 38.1783Z" fill="#97A1C6"/>
<path fill-rule="evenodd" clip-rule="evenodd" d="M45.4053 39.1464C45.4372 38.7398 45.2984 38.4176 44.9887 38.1783C45.0165 38.5572 45.1553 38.8809 45.4053 39.1464Z" fill="#7881B3"/>
<path fill-rule="evenodd" clip-rule="evenodd" d="M75.9526 38.5932C75.0014 38.6375 74.0753 38.5918 73.1756 38.4549C73.2616 38.4397 73.3311 38.3941 73.3838 38.3166C74.253 38.4065 75.1097 38.4992 75.9526 38.5932Z" fill="#95A0C5"/>
<path fill-rule="evenodd" clip-rule="evenodd" d="M210.638 38.4549C211.426 38.4549 212.212 38.4549 212.999 38.4549C213.124 38.5531 213.171 38.6914 213.138 38.8698C212.317 38.6527 211.484 38.5144 210.638 38.4549Z" fill="white"/>
<path fill-rule="evenodd" clip-rule="evenodd" d="M2.08366 39.1464C2.27944 39.0814 2.37108 38.9431 2.36136 38.7315C2.16558 38.7979 2.07255 38.9362 2.08366 39.1464Z" fill="#8893BE"/>
<path fill-rule="evenodd" clip-rule="evenodd" d="M213.138 38.8698C213.336 39.0468 213.429 39.2778 213.415 39.5613C213.215 39.3842 213.124 39.1547 213.138 38.8698Z" fill="#B8BFD9"/>
<path fill-rule="evenodd" clip-rule="evenodd" d="M45.9607 39.9761C45.9704 39.7646 45.8788 39.6263 45.683 39.5613C45.6719 39.7729 45.7649 39.9111 45.9607 39.9761Z" fill="#ACB5D2"/>
<path fill-rule="evenodd" clip-rule="evenodd" d="M260.625 39.6996C260.54 39.9665 260.401 40.1974 260.208 40.391C260.171 40.0467 260.31 39.8171 260.625 39.6996Z" fill="#757FB2"/>
<path fill-rule="evenodd" clip-rule="evenodd" d="M1.3894 41.0825C1.6199 40.8142 1.71293 40.492 1.6671 40.1144C1.46855 40.3938 1.37552 40.716 1.3894 41.0825Z" fill="#8994BE"/>
<path fill-rule="evenodd" clip-rule="evenodd" d="M134.826 41.3591C134.792 41.0963 134.653 40.911 134.409 40.8059C134.441 41.0701 134.58 41.254 134.826 41.3591Z" fill="#AAB3D1"/>
<path fill-rule="evenodd" clip-rule="evenodd" d="M213.554 39.9761C213.95 40.7465 214.182 41.5762 214.249 42.4655C214.132 42.4184 214.086 42.3258 214.11 42.1889C213.894 41.4587 213.711 40.7202 213.554 39.9761Z" fill="#9EA8CA"/>
<path fill-rule="evenodd" clip-rule="evenodd" d="M222.441 41.3591C222.348 41.1752 222.209 41.0369 222.024 40.9442C222.024 41.2208 222.163 41.3591 222.441 41.3591Z" fill="#A5AECE"/>
<path fill-rule="evenodd" clip-rule="evenodd" d="M259.653 41.0825C259.503 41.3715 259.271 41.5555 258.959 41.6357C259.107 41.348 259.341 41.1627 259.653 41.0825Z" fill="#B2BAD5"/>
<path fill-rule="evenodd" clip-rule="evenodd" d="M135.242 41.6357C135.177 41.4407 135.038 41.3494 134.826 41.3591C134.889 41.5541 135.028 41.6468 135.242 41.6357Z" fill="#8C97C0"/>
<path fill-rule="evenodd" clip-rule="evenodd" d="M182.868 41.9123C182.803 41.7173 182.664 41.626 182.452 41.6357C182.515 41.8307 182.654 41.9233 182.868 41.9123Z" fill="#8C97C0"/>
<path fill-rule="evenodd" clip-rule="evenodd" d="M223.274 42.0506C223.209 41.8556 223.07 41.7643 222.857 41.774C222.921 41.969 223.06 42.0616 223.274 42.0506Z" fill="#9DA6C9"/>
<path fill-rule="evenodd" clip-rule="evenodd" d="M34.7137 41.9123C34.6485 42.1073 34.5096 42.1986 34.2972 42.1889C34.3624 41.9953 34.5013 41.9026 34.7137 41.9123Z" fill="#BAC1DA"/>
<path fill-rule="evenodd" clip-rule="evenodd" d="M183.424 42.3272C183.318 42.0838 183.132 41.9455 182.868 41.9123C182.974 42.1557 183.158 42.294 183.424 42.3272Z" fill="#929CC3"/>
<path fill-rule="evenodd" clip-rule="evenodd" d="M258.264 42.1889C258.07 42.3811 257.838 42.5194 257.57 42.6038C257.685 42.2912 257.919 42.1529 258.264 42.1889Z" fill="#747DB1"/>
<path fill-rule="evenodd" clip-rule="evenodd" d="M48.3212 42.4655C48.2559 42.2705 48.1171 42.1792 47.9046 42.1889C47.9699 42.3839 48.1087 42.4765 48.3212 42.4655Z" fill="#8C97C0"/>
<path fill-rule="evenodd" clip-rule="evenodd" d="M136.353 42.4655C136.288 42.2705 136.149 42.1792 135.936 42.1889C136 42.3839 136.139 42.4765 136.353 42.4655Z" fill="#8893BE"/>
<path fill-rule="evenodd" clip-rule="evenodd" d="M33.8806 42.4655C33.8154 42.6605 33.6765 42.7517 33.4641 42.7421C33.5293 42.5484 33.6682 42.4558 33.8806 42.4655Z" fill="#BAC1DA"/>
<path fill-rule="evenodd" clip-rule="evenodd" d="M136.908 42.7421C136.768 42.5802 136.582 42.4876 136.353 42.4655C136.463 42.6881 136.646 42.7794 136.908 42.7421Z" fill="#9DA7CA"/>
<path fill-rule="evenodd" clip-rule="evenodd" d="M1.1117 42.1889C1.1117 42.6494 1.1117 43.1113 1.1117 43.5718C1.37691 43.5331 1.60879 43.5787 1.80596 43.7101C1.76014 43.7101 1.71293 43.7101 1.66711 43.7101C1.46299 43.7889 1.23111 43.7889 0.972848 43.7101C0.928416 43.1749 0.974237 42.6674 1.1117 42.1889Z" fill="#8D99C1"/>
<path fill-rule="evenodd" clip-rule="evenodd" d="M167.594 42.6038C167.239 42.8956 166.822 43.0795 166.345 43.1569C166.681 42.8209 167.097 42.6356 167.594 42.6038Z" fill="#717BB0"/>
<path fill-rule="evenodd" clip-rule="evenodd" d="M49.5708 43.0186C49.3487 42.8015 49.071 42.7089 48.7377 42.7421C48.9599 42.9606 49.2376 43.0518 49.5708 43.0186Z" fill="#ABB3D1"/>
<path fill-rule="evenodd" clip-rule="evenodd" d="M184.951 43.1569C184.886 42.9619 184.747 42.8707 184.534 42.8803C184.598 43.0753 184.737 43.168 184.951 43.1569Z" fill="#B6BDD7"/>
<path fill-rule="evenodd" clip-rule="evenodd" d="M138.019 43.2952C137.909 43.074 137.725 42.9813 137.464 43.0186C137.604 43.1818 137.789 43.2731 138.019 43.2952Z" fill="#BDC4DB"/>
<path fill-rule="evenodd" clip-rule="evenodd" d="M139.963 43.7101C139.391 43.511 138.79 43.3727 138.158 43.2952C138.708 43.5829 139.312 43.7212 139.963 43.7101Z" fill="#A7B1D0"/>
<path fill-rule="evenodd" clip-rule="evenodd" d="M166.345 43.1569C166.123 43.3741 165.845 43.4667 165.512 43.4335C165.748 43.262 166.025 43.1708 166.345 43.1569Z" fill="#B4BCD7"/>
<path fill-rule="evenodd" clip-rule="evenodd" d="M185.784 43.4335C185.606 43.2358 185.374 43.1431 185.09 43.1569C185.267 43.3547 185.498 43.4474 185.784 43.4335Z" fill="#B8BFD9"/>
<path fill-rule="evenodd" clip-rule="evenodd" d="M256.876 43.0186C256.518 43.2911 256.101 43.4294 255.626 43.4335C256.003 43.2164 256.419 43.0781 256.876 43.0186Z" fill="#B8BFD9"/>
<path fill-rule="evenodd" clip-rule="evenodd" d="M226.19 43.4335C226.591 43.3907 226.96 43.4377 227.301 43.5718C227.214 43.587 227.145 43.6327 227.092 43.7101C226.774 43.6258 226.476 43.5331 226.19 43.4335Z" fill="#939EC4"/>
<path fill-rule="evenodd" clip-rule="evenodd" d="M50.5428 43.4335C54.0113 43.6244 57.4826 43.717 60.9566 43.7101C60.9566 43.7558 60.9566 43.8028 60.9566 43.8484C58.6684 43.8263 56.4703 43.8263 54.3612 43.8484C53.0699 43.7585 51.7966 43.6202 50.5428 43.4335Z" fill="#9FA8CA"/>
<path fill-rule="evenodd" clip-rule="evenodd" d="M163.845 43.7101C164.186 43.576 164.555 43.529 164.956 43.5718C164.67 43.6714 164.37 43.7627 164.054 43.8484C164 43.7724 163.93 43.7253 163.845 43.7101Z" fill="#9EA8CA"/>
<path fill-rule="evenodd" clip-rule="evenodd" d="M255.626 43.4335C254.235 43.6424 252.824 43.7806 251.391 43.8484C251.137 43.8387 250.883 43.7931 250.628 43.7101C252.27 43.5967 253.936 43.5041 255.626 43.4335Z" fill="#A2ACCC"/>
<path fill-rule="evenodd" clip-rule="evenodd" d="M1.66711 43.7101C1.71293 43.7101 1.76014 43.7101 1.80596 43.7101C5.87985 43.6894 9.95236 43.735 14.0249 43.8484C13.0265 43.9784 12.031 44.0254 11.0396 43.9867C7.90153 43.8954 4.77738 43.8028 1.66711 43.7101Z" fill="#A4ADCE"/>
<path fill-rule="evenodd" clip-rule="evenodd" d="M14.0249 43.8484C19.833 43.7101 25.6648 43.6645 31.5201 43.7101C26.6506 43.8028 21.7672 43.8954 16.8713 43.9867C15.9091 43.9203 14.9607 43.8747 14.0249 43.8484Z" fill="#95A0C5"/>
<path fill-rule="evenodd" clip-rule="evenodd" d="M60.9566 43.8484C60.9566 43.8028 60.9566 43.7558 60.9566 43.7101C63.1102 43.6645 65.2388 43.7101 67.3438 43.8484C67.298 43.8484 67.2508 43.8484 67.2049 43.8484C65.1805 43.9674 63.0977 43.9673 60.9566 43.8484Z" fill="#909BC2"/>
<path fill-rule="evenodd" clip-rule="evenodd" d="M79.0073 43.5718C78.992 43.6576 78.9462 43.7267 78.8685 43.7793C77.5383 43.8042 76.2192 43.8733 74.9112 43.9867C72.616 43.9784 70.0472 43.9328 67.2049 43.8484C67.2508 43.8484 67.298 43.8484 67.3438 43.8484C71.2372 43.8277 75.125 43.7364 79.0073 43.5718Z" fill="#A9B2D0"/>
<path fill-rule="evenodd" clip-rule="evenodd" d="M186.478 43.5718C188.353 43.6341 190.204 43.7253 192.032 43.8484C190.665 43.9134 189.159 43.9134 187.52 43.8484C187.157 43.7627 186.81 43.67 186.478 43.5718Z" fill="#99A3C7"/>
<path fill-rule="evenodd" clip-rule="evenodd" d="M214.11 42.1889C214.086 42.3258 214.132 42.4184 214.249 42.4655C214.415 42.9453 214.415 43.4059 214.249 43.8484C207.167 43.8719 200.086 43.8484 193.004 43.7793C199.993 43.7101 206.982 43.6866 213.971 43.7101C213.926 43.1749 213.974 42.6674 214.11 42.1889Z" fill="white"/>
<path fill-rule="evenodd" clip-rule="evenodd" d="M227.301 43.5718C235.075 43.6935 242.851 43.7405 250.628 43.7101C247.319 43.8028 243.986 43.8484 240.63 43.8484C236.161 43.8802 231.717 43.7876 227.301 43.5718Z" fill="#C7CDE1"/>
<path fill-rule="evenodd" clip-rule="evenodd" d="M123.44 43.7101C121.406 43.9411 119.369 43.9867 117.33 43.8484C119.366 43.7876 121.403 43.7405 123.44 43.7101Z" fill="#B5BDD7"/>
<path fill-rule="evenodd" clip-rule="evenodd" d="M140.102 43.7101C148.016 43.8899 155.931 43.8899 163.845 43.7101C163.328 43.8069 162.796 43.8982 162.249 43.9867C155.545 43.9853 148.88 43.9853 142.254 43.9867C141.521 43.8982 140.804 43.8055 140.102 43.7101Z" fill="#B2BAD5"/>
</svg>
