<svg width="30" height="30" viewBox="0 0 30 30" fill="none" xmlns="http://www.w3.org/2000/svg">
<path d="M0 30L2.12034 22.3004C0.809455 20.0404 0.121776 17.481 0.12894 14.8645C0.12894 6.66588 6.83381 0 15.0645 0C19.0616 0 22.8152 1.54705 25.6304 4.35599C28.4527 7.16492 30.0071 10.9007 30 14.8717C30 23.0703 23.2951 29.7362 15.0573 29.7362H15.0501C12.5501 29.7362 10.0931 29.1088 7.9083 27.9254L0 30ZM8.28796 25.2376L8.73925 25.5086C10.6447 26.635 12.8295 27.2267 15.0573 27.2338H15.0645C21.9054 27.2338 27.4785 21.6944 27.4785 14.8788C27.4785 11.5779 26.1891 8.47671 23.8467 6.13831C21.5043 3.79991 18.3811 2.51664 15.0645 2.51664C8.22349 2.50951 2.65043 8.04896 2.65043 14.8645C2.65043 17.1958 3.30229 19.4701 4.54871 21.4377L4.8424 21.9083L3.58882 26.4639L8.28796 25.2376Z" fill="#151519"/>
<path fill-rule="evenodd" clip-rule="evenodd" d="M11.3304 8.64779C11.0511 8.02754 10.7574 8.01328 10.4923 8.00615C10.2774 7.99902 10.0267 7.99902 9.77599 7.99902C9.52527 7.99902 9.12413 8.0917 8.78029 8.46243C8.43645 8.83315 7.47656 9.73144 7.47656 11.5637C7.47656 13.3888 8.8161 15.1568 9.00235 15.4063C9.1886 15.6559 11.5883 19.5271 15.3777 21.0171C18.5296 22.2576 19.1743 22.0081 19.8548 21.9439C20.5353 21.8797 22.0611 21.0456 22.3763 20.1758C22.6843 19.3061 22.6843 18.5646 22.5912 18.4078C22.498 18.2509 22.2473 18.1582 21.8748 17.9729C21.5023 17.7875 19.6685 16.8892 19.3247 16.7609C18.9809 16.6397 18.7301 16.5755 18.4866 16.9463C18.2359 17.317 17.5195 18.1511 17.3046 18.4006C17.0897 18.6502 16.8677 18.6787 16.4952 18.4933C16.1227 18.308 14.9192 17.9158 13.4937 16.6468C12.3834 15.663 11.6313 14.4439 11.4164 14.0732C11.2015 13.7024 11.3949 13.5028 11.5811 13.3175C11.7459 13.1535 11.9536 12.8826 12.1399 12.6687C12.3261 12.4548 12.3906 12.298 12.5124 12.0485C12.6342 11.7989 12.5768 11.5851 12.4837 11.3997C12.3906 11.2215 11.6599 9.3821 11.3304 8.64779Z" fill="#151519"/>
</svg>
