<svg width="238" height="65" viewBox="0 0 238 65" fill="none" xmlns="http://www.w3.org/2000/svg">
<path d="M70.144 62.2415H88.1503L109.099 3.01172H91.0164L70.144 62.2415Z" fill="#151519"/>
<path d="M142.178 62.2325H160.032L169.356 36.1535C173.082 29.8685 180.542 31.2896 179.16 36.7879L170.216 62.2325H188.854L197.688 37.3462C200.04 31.095 209.802 30.7228 207.678 38.0906L199.366 62.2241H217.372L227.438 33.5989C230.793 23.871 218.94 10.8527 198.548 25.1822C196.129 18.6349 186.055 14.5154 172.643 24.0571L173.537 20.166H156.795L142.178 62.2325Z" fill="#151519"/>
<path d="M227.75 3.77271C228.272 1.90327 229.984 0.558293 232.032 0.558293C234.494 0.558293 236.508 2.57999 236.508 5.05001C236.508 7.55387 234.494 9.54173 232.032 9.54173C229.537 9.54173 227.522 7.56233 227.522 5.05001C227.522 4.59323 227.598 4.1872 227.75 3.77271L227.227 3.55277C227.075 4.03493 227.008 4.52556 227.008 5.05001C227.008 7.85839 229.242 10.1 232.04 10.1C234.797 10.1 237.073 7.85839 237.073 5.05001C237.073 2.28393 234.797 0 232.04 0C229.764 0 227.868 1.49724 227.227 3.55277L227.75 3.77271Z" fill="#151519"/>
<path d="M231.139 4.93195H230.953V3.43471H233.044C233.971 3.69694 233.567 4.93195 232.858 4.93195H231.139V5.45641H232.37C233.929 5.6848 233.154 7.10591 233.524 7.55424H234.047C233.634 6.99595 234.342 5.8709 233.339 5.34644C234.679 4.74586 234.123 2.84259 232.85 2.87642H230.431V7.5204H230.92V5.45641H231.139V4.93195Z" fill="#151519"/>
<path d="M123.893 20.1411H107.008L97.0524 48.1319C92.0956 63.9248 107.935 69.1609 123.033 58.2319L122.03 62.233H138.131L152.968 20.1749H135.746L126.945 44.1985C124.896 50.069 113.448 53.368 115.202 44.3846L123.893 20.1411Z" fill="#151519"/>
<path d="M28.0889 30.6049L17.0205 62.2161H33.9814L35.9203 57.5383C36.9656 64.6438 60.3332 70.6328 72.8263 45.3742C82.6303 27.1536 71.4438 9.07675 49.1552 22.3658L55.8654 2.91016H37.7833L28.0889 30.6049L46.2806 33.7854C49.4503 30.791 53.0667 29.8182 55.975 31.7299C59.4059 33.9715 58.8411 40.5188 55.3006 44.9344C51.9455 49.0877 46.5757 51.1856 43.4819 49.1216C40.1268 46.8799 40.3123 41.7538 43.6674 36.8899C44.4851 35.6972 45.3449 34.6483 46.2806 33.7854L28.0889 30.6049Z" fill="#151519"/>
<path d="M11.3129 38.2603C11.3129 38.2603 12.5858 35.0712 14.9125 36.7292L18.217 39.5038C18.217 39.5038 19.9029 40.798 19.5067 38.328L17.5341 21.2916C17.5341 21.2916 17.1717 18.6016 15.3255 20.4118L3.50683 32.4151C3.50683 32.4151 1.87986 33.9631 3.07691 34.2169L7.84822 34.1746C7.84822 34.1746 11.2033 34.1408 9.82081 38.421L1.56796 62.2584L0 62.2669L8.43831 38.0234C8.43831 38.0234 9.01154 35.5872 7.37615 35.7141L2.79029 35.7903C0.480503 35.7733 0.379345 33.2695 1.93887 31.7976L14.6849 18.8892C16.2697 17.2312 18.7396 18.1448 18.9841 20.3865C19.4646 24.2353 21.159 39.1146 21.159 39.1146C21.4793 41.5085 19.06 42.4982 17.4077 40.8656L14.8534 38.7594C14.8534 38.7594 13.2349 37.0168 12.5437 39.2669L4.55214 62.233L3.02633 62.25L11.3129 38.2603Z" fill="#151519"/>
</svg>
