<svg width="458" height="406" viewBox="0 0 458 406" fill="none" xmlns="http://www.w3.org/2000/svg">
<g opacity="0.2">
<path d="M363.838 406L251.365 274.873H75.249V406H3.37598V212.327H75.249H273.86H274.957C298.732 212.327 317.203 211.23 330.371 209.035C343.904 206.475 355.06 200.074 363.838 189.832C372.982 179.225 377.554 162.583 377.554 139.905C377.554 115.765 372.982 98.2081 363.838 87.2352C355.06 75.8964 343.904 68.9469 330.371 66.3865C317.203 63.8261 298.732 62.546 274.957 62.546C264.35 62.546 255.206 62.7288 247.525 63.0946C210.948 64.5577 153.523 65.2892 75.249 65.2892H3.37598V0H280.992C315.008 0 345.001 5.66937 370.971 17.0081C397.306 28.3469 417.606 44.2577 431.871 64.7406C446.501 84.8577 453.816 108.267 453.816 134.968V137.162C453.816 171.91 443.575 200.623 423.092 223.3C402.975 245.978 374.994 261.157 339.149 268.838L457.108 406H363.838Z" fill="url(#paint0_linear_1299_511)"/>
<circle cx="40.0936" cy="139.103" r="40.0936" fill="url(#paint1_linear_1299_511)"/>
</g>
<defs>
<linearGradient id="paint0_linear_1299_511" x1="230.242" y1="406" x2="230.242" y2="0" gradientUnits="userSpaceOnUse">
<stop stop-color="#707177"/>
<stop offset="1" stop-color="white"/>
</linearGradient>
<linearGradient id="paint1_linear_1299_511" x1="40.0936" y1="179.197" x2="40.0936" y2="99.0098" gradientUnits="userSpaceOnUse">
<stop stop-color="#707177"/>
<stop offset="1" stop-color="white"/>
</linearGradient>
</defs>
</svg>
