<svg width="922" height="821" viewBox="0 0 922 821" fill="none" xmlns="http://www.w3.org/2000/svg">
<g opacity="0.1">
<path d="M750.901 17.1262C697.268 -6.29125 635.324 -18 565.072 -18H-8.27979V107.775H139.024H395.106C448.74 107.019 486.51 106.642 508.417 106.642H557.14C603.22 106.642 640.612 109.286 669.318 114.573C698.023 119.861 722.574 134.592 742.969 158.764C764.121 182.182 774.696 218.819 774.696 268.676C774.696 316.266 764.121 351.393 742.969 374.055C722.574 395.961 697.645 409.559 668.185 414.846C639.479 420.134 602.464 422.778 557.14 422.778H556.007H140.157H-8.27979V820.498H140.157V548.553H606.997C712.753 548.553 791.693 524.758 843.816 477.167C895.939 428.821 922 358.191 922 265.276V260.744C922 205.6 906.892 157.254 876.676 115.706C847.215 73.4039 805.29 40.5438 750.901 17.1262Z" fill="#151519"/>
<path d="M750.901 17.1262C697.268 -6.29125 635.324 -18 565.072 -18H-8.27979V107.775H139.024H395.106C448.74 107.019 486.51 106.642 508.417 106.642H557.14C603.22 106.642 640.612 109.286 669.318 114.573C698.023 119.861 722.574 134.592 742.969 158.764C764.121 182.182 774.696 218.819 774.696 268.676C774.696 316.266 764.121 351.393 742.969 374.055C722.574 395.961 697.645 409.559 668.185 414.846C639.479 420.134 602.464 422.778 557.14 422.778H556.007H140.157H-8.27979V820.498H140.157V548.553H606.997C712.753 548.553 791.693 524.758 843.816 477.167C895.939 428.821 922 358.191 922 265.276V260.744C922 205.6 906.892 157.254 876.676 115.706C847.215 73.4039 805.29 40.5438 750.901 17.1262Z" fill="url(#paint0_linear_1670_816)"/>
<circle cx="65.8908" cy="269.6" r="82.8908" fill="#151519"/>
<circle cx="65.8908" cy="269.6" r="82.8908" fill="url(#paint1_linear_1670_816)"/>
</g>
<defs>
<linearGradient id="paint0_linear_1670_816" x1="456.86" y1="-18" x2="456.86" y2="1818.47" gradientUnits="userSpaceOnUse">
<stop stop-color="#151519"/>
<stop offset="1" stop-color="#A9ABB5"/>
</linearGradient>
<linearGradient id="paint1_linear_1670_816" x1="65.8908" y1="186.709" x2="65.8908" y2="549.802" gradientUnits="userSpaceOnUse">
<stop stop-color="#151519"/>
<stop offset="1" stop-color="#A9ABB5"/>
</linearGradient>
</defs>
</svg>
