<svg width="72" height="64" viewBox="0 0 72 64" fill="none" xmlns="http://www.w3.org/2000/svg">
<path d="M58.612 2.68108C54.5183 0.893692 49.7903 0 44.4282 0H0.666016V9.6H11.9093H31.4552C35.5489 9.54234 38.4318 9.51351 40.1039 9.51351H43.8228C47.3399 9.51351 50.1939 9.71531 52.3849 10.1189C54.5759 10.5225 56.4498 11.6468 58.0066 13.4919C59.621 15.2793 60.4282 18.0757 60.4282 21.8811C60.4282 25.5135 59.621 28.1946 58.0066 29.9243C56.4498 31.5964 54.5471 32.6342 52.2984 33.0378C50.1075 33.4414 47.2822 33.6432 43.8228 33.6432H43.7363H11.9957H0.666016V64H11.9957V43.2432H47.6282C55.7002 43.2432 61.7255 41.427 65.7038 37.7946C69.6822 34.1045 71.6714 28.7135 71.6714 21.6216V21.2757C71.6714 17.0667 70.5183 13.3766 68.212 10.2054C65.9633 6.97657 62.7633 4.46847 58.612 2.68108Z" fill="#151519"/>
<path d="M58.612 2.68108C54.5183 0.893692 49.7903 0 44.4282 0H0.666016V9.6H11.9093H31.4552C35.5489 9.54234 38.4318 9.51351 40.1039 9.51351H43.8228C47.3399 9.51351 50.1939 9.71531 52.3849 10.1189C54.5759 10.5225 56.4498 11.6468 58.0066 13.4919C59.621 15.2793 60.4282 18.0757 60.4282 21.8811C60.4282 25.5135 59.621 28.1946 58.0066 29.9243C56.4498 31.5964 54.5471 32.6342 52.2984 33.0378C50.1075 33.4414 47.2822 33.6432 43.8228 33.6432H43.7363H11.9957H0.666016V64H11.9957V43.2432H47.6282C55.7002 43.2432 61.7255 41.427 65.7038 37.7946C69.6822 34.1045 71.6714 28.7135 71.6714 21.6216V21.2757C71.6714 17.0667 70.5183 13.3766 68.212 10.2054C65.9633 6.97657 62.7633 4.46847 58.612 2.68108Z" fill="url(#paint0_linear_1660_1607)"/>
<circle cx="6.3268" cy="21.9518" r="6.3268" fill="#151519"/>
<circle cx="6.3268" cy="21.9518" r="6.3268" fill="url(#paint1_linear_1660_1607)"/>
<defs>
<linearGradient id="paint0_linear_1660_1607" x1="36.1687" y1="0" x2="36.1687" y2="140.172" gradientUnits="userSpaceOnUse">
<stop stop-color="#151519"/>
<stop offset="1" stop-color="#A9ABB5"/>
</linearGradient>
<linearGradient id="paint1_linear_1660_1607" x1="6.3268" y1="15.625" x2="6.3268" y2="43.3388" gradientUnits="userSpaceOnUse">
<stop stop-color="#151519"/>
<stop offset="1" stop-color="#A9ABB5"/>
</linearGradient>
</defs>
</svg>
