<svg width="72" height="64" viewBox="0 0 72 64" fill="none" xmlns="http://www.w3.org/2000/svg">
<path d="M58.6115 2.68108C54.5178 0.893692 49.7898 0 44.4277 0H0.665527V9.6H11.9088H31.4547C35.5484 9.54234 38.4313 9.51351 40.1034 9.51351H43.8223C47.3394 9.51351 50.1935 9.71531 52.3844 10.1189C54.5754 10.5225 56.4493 11.6468 58.0061 13.4919C59.6205 15.2793 60.4277 18.0757 60.4277 21.8811C60.4277 25.5135 59.6205 28.1946 58.0061 29.9243C56.4493 31.5964 54.5466 32.6342 52.298 33.0378C50.107 33.4414 47.2817 33.6432 43.8223 33.6432H43.7358H11.9953H0.665527V64H11.9953V43.2432H47.6277C55.6998 43.2432 61.725 41.427 65.7034 37.7946C69.6817 34.1045 71.6709 28.7135 71.6709 21.6216V21.2757C71.6709 17.0667 70.5178 13.3766 68.2115 10.2054C65.9628 6.97657 62.7628 4.46847 58.6115 2.68108Z" fill="#151519"/>
<path d="M58.6115 2.68108C54.5178 0.893692 49.7898 0 44.4277 0H0.665527V9.6H11.9088H31.4547C35.5484 9.54234 38.4313 9.51351 40.1034 9.51351H43.8223C47.3394 9.51351 50.1935 9.71531 52.3844 10.1189C54.5754 10.5225 56.4493 11.6468 58.0061 13.4919C59.6205 15.2793 60.4277 18.0757 60.4277 21.8811C60.4277 25.5135 59.6205 28.1946 58.0061 29.9243C56.4493 31.5964 54.5466 32.6342 52.298 33.0378C50.107 33.4414 47.2817 33.6432 43.8223 33.6432H43.7358H11.9953H0.665527V64H11.9953V43.2432H47.6277C55.6998 43.2432 61.725 41.427 65.7034 37.7946C69.6817 34.1045 71.6709 28.7135 71.6709 21.6216V21.2757C71.6709 17.0667 70.5178 13.3766 68.2115 10.2054C65.9628 6.97657 62.7628 4.46847 58.6115 2.68108Z" fill="url(#paint0_linear_1670_568)"/>
<path d="M58.6115 2.68108C54.5178 0.893692 49.7898 0 44.4277 0H0.665527V9.6H11.9088H31.4547C35.5484 9.54234 38.4313 9.51351 40.1034 9.51351H43.8223C47.3394 9.51351 50.1935 9.71531 52.3844 10.1189C54.5754 10.5225 56.4493 11.6468 58.0061 13.4919C59.6205 15.2793 60.4277 18.0757 60.4277 21.8811C60.4277 25.5135 59.6205 28.1946 58.0061 29.9243C56.4493 31.5964 54.5466 32.6342 52.298 33.0378C50.107 33.4414 47.2817 33.6432 43.8223 33.6432H43.7358H11.9953H0.665527V64H11.9953V43.2432H47.6277C55.6998 43.2432 61.725 41.427 65.7034 37.7946C69.6817 34.1045 71.6709 28.7135 71.6709 21.6216V21.2757C71.6709 17.0667 70.5178 13.3766 68.2115 10.2054C65.9628 6.97657 62.7628 4.46847 58.6115 2.68108Z" fill="url(#paint1_linear_1670_568)"/>
<circle cx="6.3268" cy="21.9518" r="6.3268" fill="#151519"/>
<circle cx="6.3268" cy="21.9518" r="6.3268" fill="url(#paint2_linear_1670_568)"/>
<circle cx="6.3268" cy="21.9518" r="6.3268" fill="url(#paint3_linear_1670_568)"/>
<defs>
<linearGradient id="paint0_linear_1670_568" x1="36.1682" y1="0" x2="36.1682" y2="140.172" gradientUnits="userSpaceOnUse">
<stop stop-color="#151519"/>
<stop offset="1" stop-color="#A9ABB5"/>
</linearGradient>
<linearGradient id="paint1_linear_1670_568" x1="36.1682" y1="0" x2="36.1682" y2="83.6999" gradientUnits="userSpaceOnUse">
<stop stop-color="#A9ABB5"/>
<stop offset="1" stop-color="#4A4B4F"/>
</linearGradient>
<linearGradient id="paint2_linear_1670_568" x1="6.3268" y1="15.625" x2="6.3268" y2="43.3388" gradientUnits="userSpaceOnUse">
<stop stop-color="#151519"/>
<stop offset="1" stop-color="#A9ABB5"/>
</linearGradient>
<linearGradient id="paint3_linear_1670_568" x1="6.3268" y1="15.625" x2="6.3268" y2="32.1735" gradientUnits="userSpaceOnUse">
<stop stop-color="#A9ABB5"/>
<stop offset="1" stop-color="#4A4B4F"/>
</linearGradient>
</defs>
</svg>
