<svg width="72" height="64" viewBox="0 0 72 64" fill="none" xmlns="http://www.w3.org/2000/svg">
<path d="M56.8748 63.4648L39.2933 42.9674H11.7633V63.4648H0.52832V33.1904H11.7633H42.8096H42.9811C46.6975 33.1904 49.5849 33.0189 51.6432 32.6758C53.7587 32.2756 55.5026 31.275 56.8748 29.6741C58.3042 28.016 59.0189 25.4145 59.0189 21.8696C59.0189 18.0961 58.3042 15.3516 56.8748 13.6364C55.5026 11.8639 53.7587 10.7776 51.6432 10.3774C49.5849 9.97713 46.6975 9.77702 42.9811 9.77702C41.323 9.77702 39.8937 9.8056 38.693 9.86278C32.9754 10.0915 23.9989 10.2058 11.7633 10.2058H0.52832V0H43.9245C49.2419 0 53.9302 0.886221 57.9897 2.65866C62.1063 4.43111 65.2796 6.91824 67.5094 10.1201C69.7964 13.2647 70.94 16.924 70.94 21.0978V21.4408C70.94 26.8725 69.3391 31.3608 66.1372 34.9057C62.9926 38.4505 58.6186 40.8233 53.0154 42.024L71.4545 63.4648H56.8748Z" fill="url(#paint0_linear_140_425)"/>
<circle cx="6.26732" cy="21.7444" r="6.26732" fill="url(#paint1_linear_140_425)"/>
<defs>
<linearGradient id="paint0_linear_140_425" x1="35.9914" y1="0" x2="35.9914" y2="139" gradientUnits="userSpaceOnUse">
<stop stop-color="#151519"/>
<stop offset="1" stop-color="#A9ABB5"/>
</linearGradient>
<linearGradient id="paint1_linear_140_425" x1="6.26732" y1="15.4771" x2="6.26732" y2="42.9303" gradientUnits="userSpaceOnUse">
<stop stop-color="#151519"/>
<stop offset="1" stop-color="#A9ABB5"/>
</linearGradient>
</defs>
</svg>
