<svg width="30" height="30" viewBox="0 0 30 30" fill="none" xmlns="http://www.w3.org/2000/svg">
<path fill-rule="evenodd" clip-rule="evenodd" d="M2.54673 14.1165C10.2986 10.7392 15.4677 8.51261 18.0541 7.43685C25.4387 4.36533 26.9732 3.83177 27.9733 3.81415C28.1933 3.81028 28.6852 3.86479 29.0037 4.12331C29.2728 4.3416 29.3468 4.63647 29.3822 4.84343C29.4176 5.05039 29.4617 5.52185 29.4267 5.89023C29.0265 10.0949 27.2949 20.2986 26.414 25.0079C26.0413 27.0006 25.3073 27.6687 24.5968 27.7341C23.0526 27.8762 21.88 26.7136 20.3843 25.7332C18.044 24.199 16.7218 23.244 14.4501 21.747C11.8247 20.0169 13.5266 19.066 15.0228 17.512C15.4144 17.1053 22.2181 10.9168 22.3498 10.3554C22.3663 10.2852 22.3816 10.0235 22.2261 9.88527C22.0706 9.74707 21.8411 9.79433 21.6756 9.83191C21.4408 9.88519 17.7021 12.3564 10.4593 17.2455C9.39802 17.9742 8.43678 18.3292 7.57555 18.3106C6.62611 18.2901 4.79977 17.7738 3.44207 17.3325C1.7768 16.7912 0.45327 16.505 0.568519 15.5856C0.628548 15.1068 1.28795 14.6171 2.54673 14.1165Z" fill="#151519"/>
</svg>
